<svg width="24" height="24" viewBox="0 0 24 24" fill="none" xmlns="http://www.w3.org/2000/svg">
<path fill-rule="evenodd" clip-rule="evenodd" d="M22.9999 11.8281V8.39061C22.9999 7.91611 22.6152 7.53123 22.1405 7.53123H19.1241L14.5832 1.35061C14.302 0.968087 13.7642 0.885842 13.3817 1.16699C12.9992 1.44796 12.917 1.98574 13.1979 2.36827L16.9914 7.53123H7.0403L10.8336 2.36827C11.1146 1.98574 11.0324 1.44796 10.6499 1.16699C10.2673 0.885842 9.72955 0.968255 9.44857 1.35061L4.90747 7.53123H1.85938C1.3847 7.53123 1 7.91594 1 8.39061V11.8281C1 12.3028 1.3847 12.6875 1.85938 12.6875H2.43895L3.31192 19.9715C3.51888 21.698 4.98619 23 6.72509 23H17.3438C19.0956 23 20.5641 21.6871 20.7598 19.9464C20.8126 19.4747 20.4733 19.0494 20.0016 18.9964C19.53 18.9435 19.1046 19.2827 19.0518 19.7543C18.9539 20.6248 18.2196 21.2812 17.3438 21.2812H6.72509C5.85564 21.2812 5.12198 20.6303 5.01859 19.7671L4.16996 12.6875H5.85294C6.32761 12.6875 6.71232 12.3028 6.71232 11.8281C6.71232 11.3536 6.32761 10.9687 5.85294 10.9687H2.71875V9.24999H21.2813V10.9687H20.8071C20.3695 10.9687 20.0019 11.2976 19.9531 11.7323L19.5053 15.7178C19.4522 16.1893 19.7916 16.6148 20.2633 16.6676C20.296 16.6713 20.3282 16.6732 20.3603 16.6732C20.792 16.673 21.1639 16.3487 21.2133 15.9096L21.5753 12.6875H22.1405C22.6152 12.6875 22.9999 12.3028 22.9999 11.8281ZM11.3529 12.8088C11.3529 12.3621 11.715 12 12.1617 12C12.6084 12 12.9706 12.3621 12.9706 12.8088V14.5882H14.75C15.1967 14.5882 15.5588 14.9503 15.5588 15.397C15.5588 15.8437 15.1967 16.2058 14.75 16.2058H12.9706V17.9853C12.9706 18.432 12.6084 18.7941 12.1617 18.7941C11.715 18.7941 11.3529 18.432 11.3529 17.9853V16.2058H9.57355C9.12684 16.2058 8.76472 15.8437 8.76472 15.397C8.76472 14.9503 9.12684 14.5882 9.57355 14.5882H11.3529V12.8088Z" fill="white"/>
</svg>
