<svg width="16" height="22" viewBox="0 0 16 22" fill="none" xmlns="http://www.w3.org/2000/svg">
<path d="M8.00009 13.0051C7.66077 13.0051 7.38471 12.729 7.38471 12.3897C7.38471 12.1418 7.5322 11.9192 7.76046 11.8225C8.03603 11.7058 8.36579 11.8054 8.66545 12.0957C8.90955 12.3321 9.29913 12.326 9.5356 12.0819C9.77211 11.8378 9.76592 11.4483 9.52186 11.2118C9.24403 10.9426 8.93519 10.7524 8.61548 10.645V9.92813C8.61548 9.58827 8.33995 9.31274 8.00009 9.31274C7.66024 9.31274 7.38471 9.58827 7.38471 9.92813V10.649C7.3498 10.6614 7.31501 10.6745 7.2805 10.6892C6.59615 10.979 6.15394 11.6465 6.15394 12.3897C6.15394 13.4076 6.98212 14.2358 8.00009 14.2358C8.33942 14.2358 8.61548 14.5119 8.61548 14.8512C8.61548 15.1091 8.45281 15.3416 8.21072 15.4298C7.89462 15.5449 7.52666 15.3888 7.20124 15.0013C6.98266 14.741 6.59451 14.7072 6.33425 14.9258C6.07398 15.1444 6.04022 15.5326 6.2588 15.7928C6.59148 16.1889 6.97872 16.4606 7.38475 16.5973V17.3127C7.38475 17.6526 7.66028 17.9281 8.00013 17.9281C8.33999 17.9281 8.61552 17.6526 8.61552 17.3127V16.5918C8.62102 16.5899 8.62651 16.5882 8.63197 16.5862C9.35825 16.3217 9.84625 15.6244 9.84625 14.8512C9.84625 13.8332 9.01806 13.0051 8.00009 13.0051Z" fill="white"/>
<path d="M13.6992 9.24139C12.9678 8.34158 12.1317 7.6247 11.2139 7.10917C11.3642 6.93132 11.4828 6.72279 11.5594 6.49038C11.86 5.57514 11.421 4.48796 10.3004 4.13378L11.8713 1.39471C12.0695 1.04903 11.8914 0.608738 11.5093 0.497641C10.3735 0.167426 9.19286 0 8 0C6.80714 0 5.6265 0.167426 4.49075 0.497641C4.10814 0.608862 3.93079 1.04944 4.12874 1.39471L5.69957 4.13383C4.58347 4.4862 4.13891 5.57177 4.44074 6.49087C4.51709 6.72267 4.63565 6.93108 4.78642 7.10901C3.86847 7.62453 3.03229 8.3415 2.3008 9.24139C0.838605 11.0402 0 13.3093 0 15.4667C0 19.9422 3.57116 21.0051 8 21.0051C12.432 21.0051 16 19.9404 16 15.4667C16 13.3093 15.1614 11.0402 13.6992 9.24139ZM5.59984 1.48587C6.38494 1.31639 7.18925 1.23077 8 1.23077C8.81075 1.23077 9.61506 1.31639 10.4002 1.48587L9.04496 3.84903C8.35085 3.75212 7.64935 3.75216 6.95508 3.84907L5.59984 1.48587ZM6.00189 5.32907C7.06096 4.98166 8.16899 4.91582 9.2462 5.13116C9.24747 5.13141 9.24878 5.13165 9.25005 5.1319C9.50113 5.18228 9.75052 5.24784 9.99725 5.32878C10.3198 5.43508 10.496 5.78392 10.3903 6.10585C10.3134 6.33899 10.1106 6.49957 9.87192 6.52558C9.25834 6.33346 8.63249 6.2359 8 6.2359C7.36878 6.2359 6.74416 6.33305 6.13177 6.52439C5.88944 6.49945 5.68607 6.33772 5.60989 6.10642C5.504 5.78392 5.68025 5.43504 6.00189 5.32907ZM8 19.7826C3.19196 19.7826 1.23077 18.5264 1.23077 15.4667C1.23077 13.6147 1.98782 11.5777 3.2558 10.0177C4.59303 8.37264 6.27787 7.46667 8 7.46667C9.89563 7.46667 11.5537 8.55311 12.7442 10.0177C14.0122 11.5777 14.7692 13.6147 14.7692 15.4667C14.7692 18.5264 12.808 19.7826 8 19.7826Z" fill="white"/>
</svg>
