<svg width="20" height="18" viewBox="0 0 20 18" fill="none" xmlns="http://www.w3.org/2000/svg">
<path d="M15.5449 6.55297C15.5632 6.36278 15.5726 6.17 15.5726 5.9751C15.5726 2.68043 12.8922 0 9.59751 0C6.30284 0 3.62241 2.68043 3.62241 5.9751C3.62241 6.15944 3.63081 6.34183 3.64724 6.52194C1.50573 7.43127 0 9.55554 0 12.0249C0 15.3196 2.68043 18 5.9751 18C7.31909 18 8.56087 17.5539 9.56017 16.8021C10.5595 17.5539 11.8012 18 13.1452 18C13.9919 18 14.8106 17.8263 15.5783 17.4836C15.9549 17.3155 16.124 16.8739 15.9559 16.4972C15.7878 16.1205 15.3462 15.9515 14.9694 16.1196C14.3946 16.3761 13.7808 16.5062 13.1452 16.5062C12.2215 16.5062 11.3622 16.2253 10.6482 15.7444C11.4628 14.7231 11.9502 13.4298 11.9502 12.0249C11.9502 11.8406 11.9418 11.6582 11.9254 11.4781C13.4363 10.8365 14.6306 9.59019 15.2031 8.04462C16.6416 8.79136 17.6266 10.2953 17.6266 12.0249C17.6266 12.6726 17.4916 13.2971 17.2254 13.8811C17.0544 14.2564 17.22 14.6994 17.5953 14.8705C17.9706 15.0416 18.4136 14.876 18.5847 14.5006C18.9401 13.7209 19.1203 12.8879 19.1203 12.0249C19.1203 9.58325 17.6482 7.47896 15.5449 6.55297ZM5.9751 16.5062C3.5041 16.5062 1.49378 14.4959 1.49378 12.0249C1.49378 10.2702 2.50756 8.74774 3.98017 8.01258C4.53895 9.54833 5.71059 10.7923 7.19783 11.447C7.17954 11.6372 7.17013 11.83 7.17013 12.0249C7.17013 13.4298 7.65754 14.7231 8.47214 15.7444C7.75815 16.2253 6.89882 16.5062 5.9751 16.5062ZM7.53965 9.95538C6.57086 9.45247 5.80776 8.60613 5.41273 7.57867C5.59699 7.55552 5.78468 7.54357 5.9751 7.54357C6.89882 7.54357 7.75815 7.82451 8.47214 8.30539C8.07916 8.79812 7.76233 9.3541 7.53965 9.95538ZM9.56017 14.7109C8.99761 13.9619 8.6639 13.0316 8.6639 12.0249C8.6639 11.9756 8.66472 11.9266 8.66629 11.8777C8.96979 11.9254 9.28083 11.9502 9.59751 11.9502C9.88839 11.9502 10.1745 11.9293 10.4544 11.8889C10.4557 11.9341 10.4564 11.9794 10.4564 12.0249C10.4564 13.0316 10.1227 13.9619 9.56017 14.7109ZM8.96411 10.4118C9.11364 10.0256 9.31519 9.66507 9.56017 9.33894C9.80713 9.66776 10.01 10.0315 10.1599 10.4213C9.97562 10.4445 9.78793 10.4564 9.59751 10.4564C9.38256 10.4564 9.17107 10.4412 8.96411 10.4118ZM11.5924 9.98742C11.3692 9.37386 11.0482 8.80686 10.6482 8.30539C11.3622 7.82451 12.2215 7.54357 13.1452 7.54357C13.3602 7.54357 13.5717 7.55881 13.7786 7.5882C13.374 8.63347 12.5881 9.49037 11.5924 9.98742ZM14.0764 6.12228C13.773 6.07459 13.4619 6.04979 13.1452 6.04979C11.8012 6.04979 10.5595 6.49587 9.56017 7.24769C8.56087 6.49587 7.31909 6.04979 5.9751 6.04979C5.68423 6.04979 5.39813 6.07071 5.11824 6.11108C5.11689 6.06593 5.11618 6.02059 5.11618 5.9751C5.11618 3.5041 7.12651 1.49378 9.59751 1.49378C12.0685 1.49378 14.0788 3.5041 14.0788 5.9751C14.0788 6.02436 14.078 6.07343 14.0764 6.12228Z" fill="white"/>
</svg>
