<svg width="191" height="161" viewBox="0 0 191 161" fill="none" xmlns="http://www.w3.org/2000/svg">
<ellipse opacity="0.05" cx="95.5" cy="106" rx="95.5" ry="19" fill="black"/>
<path d="M63.9484 33.8605C63.7842 33.8511 63.6231 33.9072 63.5002 34.0165C63.3774 34.1258 63.3029 34.2794 63.2931 34.4435L59.4213 100.69C59.4119 100.854 59.4679 101.016 59.5772 101.138C59.6865 101.261 59.8401 101.336 60.0042 101.346L113.373 104.465C113.537 104.474 113.698 104.418 113.821 104.309C113.944 104.199 114.019 104.046 114.028 103.882L117.9 37.635C117.91 37.4709 117.853 37.3097 117.744 37.1868C117.635 37.064 117.481 36.9895 117.317 36.9797L63.9484 33.8605Z" fill="#FA8F4B"/>
<path d="M65.8138 35.9574C65.6496 35.948 65.4884 36.0041 65.3656 36.1134C65.2427 36.2227 65.1683 36.3762 65.1585 36.5404L61.5182 98.8247C61.5088 98.9889 61.5649 99.1501 61.6742 99.2729C61.7835 99.3958 61.937 99.4703 62.1012 99.4801L111.508 102.368C111.672 102.377 111.833 102.321 111.956 102.212C112.079 102.102 112.153 101.949 112.163 101.785L115.803 39.5003C115.813 39.3362 115.757 39.175 115.647 39.0522C115.538 38.9293 115.384 38.8548 115.22 38.845L65.8138 35.9574Z" fill="#DF7D3E"/>
<g opacity="0.5">
<path d="M107.144 65.4126L70.7396 63.2849C70.6176 63.2779 70.4982 63.2468 70.3882 63.1936C70.2782 63.1404 70.1798 63.066 70.0985 62.9747C70.0173 62.8834 69.9548 62.777 69.9147 62.6616C69.8746 62.5461 69.8576 62.4239 69.8647 62.3019C69.8719 62.1799 69.903 62.0605 69.9562 61.9505C70.0095 61.8406 70.084 61.7422 70.1753 61.661C70.2666 61.5798 70.3731 61.5174 70.4885 61.4773C70.604 61.4373 70.7262 61.4203 70.8482 61.4275L107.253 63.5552C107.499 63.5698 107.73 63.6815 107.893 63.8658C108.057 64.0501 108.141 64.292 108.127 64.5382C108.113 64.7844 108.001 65.0148 107.817 65.1788C107.632 65.3428 107.391 65.4269 107.144 65.4126Z" fill="#FA8F4B"/>
<path d="M108.468 48.1262L84.3164 46.7146C83.9762 46.6947 83.7246 46.2628 83.7546 45.7499C83.7846 45.237 84.0847 44.8373 84.425 44.8572L108.577 46.2688C108.917 46.2887 109.169 46.7206 109.139 47.2335C109.109 47.7464 108.809 48.1461 108.468 48.1262Z" fill="#FA8F4B"/>
<path d="M108.157 53.4506L84.0054 52.0391C83.6651 52.0192 83.4136 51.5873 83.4435 51.0744C83.4735 50.5615 83.7737 50.1618 84.1139 50.1817L108.266 51.5933C108.606 51.6131 108.858 52.0451 108.828 52.558C108.798 53.0709 108.498 53.4705 108.157 53.4506Z" fill="#FA8F4B"/>
<path d="M106.794 71.4183L70.3888 69.2906C70.1426 69.2761 69.9122 69.1644 69.7483 68.9801C69.5845 68.7957 69.5005 68.5539 69.5149 68.3077C69.5293 68.0614 69.6408 67.831 69.8251 67.667C70.0093 67.5031 70.2511 67.419 70.4973 67.4332L106.902 69.5609C107.148 69.5754 107.379 69.6871 107.543 69.8715C107.706 70.0558 107.79 70.2976 107.776 70.5438C107.762 70.7901 107.65 71.0205 107.466 71.1845C107.282 71.3484 107.04 71.4325 106.794 71.4183Z" fill="#FA8F4B"/>
<path d="M106.443 77.4237L70.0377 75.296C69.9157 75.289 69.7963 75.2579 69.6863 75.2047C69.5763 75.1515 69.4779 75.0771 69.3966 74.9858C69.3154 74.8945 69.2529 74.7881 69.2128 74.6727C69.1727 74.5572 69.1557 74.435 69.1628 74.313C69.17 74.191 69.2011 74.0716 69.2543 73.9617C69.3076 73.8517 69.3821 73.7533 69.4734 73.6721C69.5647 73.5909 69.6712 73.5285 69.7866 73.4884C69.9021 73.4484 70.0243 73.4314 70.1463 73.4386L106.551 75.5663C106.673 75.5734 106.793 75.6044 106.903 75.6577C107.013 75.7109 107.111 75.7853 107.192 75.8766C107.273 75.9679 107.336 76.0743 107.376 76.1897C107.416 76.3051 107.433 76.4273 107.426 76.5493C107.419 76.6713 107.388 76.7907 107.334 76.9007C107.281 77.0107 107.207 77.1091 107.115 77.1903C107.024 77.2715 106.918 77.3339 106.802 77.374C106.687 77.414 106.565 77.4309 106.443 77.4237Z" fill="#FA8F4B"/>
<path d="M106.091 83.4292L69.6867 81.3015C69.5647 81.2944 69.4453 81.2633 69.3354 81.21C69.2254 81.1568 69.1271 81.0824 69.0459 80.9911C68.9647 80.8998 68.9022 80.7935 68.8622 80.6781C68.8221 80.5627 68.8051 80.4405 68.8122 80.3185C68.8194 80.1966 68.8504 80.0772 68.9037 79.9673C68.957 79.8573 69.0313 79.7589 69.1226 79.6777C69.2139 79.5965 69.3203 79.5341 69.4357 79.494C69.5511 79.4539 69.6733 79.437 69.7952 79.4441L106.2 81.5718C106.446 81.5863 106.677 81.698 106.84 81.8823C107.004 82.0667 107.088 82.3085 107.074 82.5547C107.06 82.801 106.948 83.0314 106.764 83.1954C106.579 83.3593 106.338 83.4434 106.091 83.4292Z" fill="#FA8F4B"/>
<path d="M105.741 89.4348L69.3358 87.3071C69.0896 87.2926 68.8592 87.1809 68.6954 86.9965C68.5315 86.8122 68.4475 86.5704 68.4619 86.3241C68.4763 86.0779 68.5879 85.8475 68.7721 85.6835C68.9563 85.5195 69.1981 85.4354 69.4444 85.4497L105.849 87.5774C106.095 87.5919 106.326 87.7036 106.49 87.8879C106.653 88.0723 106.737 88.3141 106.723 88.5603C106.709 88.8065 106.597 89.037 106.413 89.201C106.229 89.3649 105.987 89.449 105.741 89.4348Z" fill="#FA8F4B"/>
<path d="M105.39 95.4404L68.9848 93.3127C68.8628 93.3056 68.7434 93.2745 68.6335 93.2213C68.5235 93.168 68.4252 93.0936 68.344 93.0023C68.18 92.818 68.0959 92.5761 68.1103 92.3298C68.1247 92.0835 68.2364 91.853 68.4207 91.689C68.6051 91.525 68.847 91.4409 69.0933 91.4553L105.498 93.583C105.62 93.5901 105.74 93.6211 105.85 93.6744C105.96 93.7276 106.058 93.802 106.139 93.8933C106.22 93.9846 106.283 94.091 106.323 94.2064C106.363 94.3218 106.38 94.444 106.373 94.566C106.366 94.688 106.335 94.8074 106.281 94.9174C106.228 95.0274 106.154 95.1258 106.062 95.207C105.971 95.2882 105.865 95.3506 105.749 95.3906C105.634 95.4307 105.512 95.4476 105.39 95.4404Z" fill="#FA8F4B"/>
<path d="M75.3342 52.8992C78.0359 53.0509 80.349 50.9837 80.5006 48.282C80.6523 45.5804 78.5851 43.2673 75.8835 43.1157C73.1818 42.964 70.8688 45.0312 70.7171 47.7328C70.5654 50.4345 72.6326 52.7475 75.3342 52.8992Z" fill="#FA8F4B"/>
</g>
<path d="M96.6576 16.3647C96.4865 16.2793 96.2885 16.2653 96.1071 16.3257C95.9256 16.3861 95.7755 16.516 95.6898 16.687L61.1506 85.7106C61.0652 85.8818 61.0512 86.0798 61.1116 86.2612C61.172 86.4426 61.302 86.5927 61.4729 86.6785L117.079 114.503C117.25 114.589 117.448 114.603 117.629 114.542C117.811 114.482 117.961 114.352 118.047 114.181L152.586 45.1575C152.671 44.9864 152.685 44.7884 152.625 44.6069C152.564 44.4255 152.434 44.2754 152.264 44.1896L96.6576 16.3647Z" fill="#FA8F4B"/>
<path d="M97.6891 19.4617C97.518 19.3764 97.32 19.3623 97.1386 19.4228C96.9571 19.4832 96.807 19.6131 96.7213 19.784L64.248 84.6792C64.1626 84.8503 64.1486 85.0483 64.209 85.2297C64.2694 85.4112 64.3994 85.5613 64.5703 85.647L116.048 111.406C116.219 111.492 116.417 111.506 116.598 111.445C116.78 111.385 116.93 111.255 117.016 111.084L149.489 46.1887C149.574 46.0176 149.588 45.8196 149.528 45.6382C149.467 45.4567 149.338 45.3066 149.167 45.2209L97.6891 19.4617Z" fill="#DF7D3E"/>
<g opacity="0.5">
<path d="M128.343 69.9087L90.4125 50.9283C90.2854 50.8648 90.172 50.7768 90.0789 50.6695C89.9857 50.5621 89.9146 50.4374 89.8697 50.3026C89.8248 50.1677 89.8068 50.0253 89.8169 49.8836C89.827 49.7418 89.865 49.6034 89.9286 49.4763C89.9922 49.3492 90.0802 49.2358 90.1876 49.1427C90.2951 49.0497 90.4198 48.9787 90.5546 48.9338C90.6895 48.8889 90.8319 48.8711 90.9737 48.8812C91.1155 48.8914 91.2538 48.9294 91.3809 48.9931L129.312 67.9735C129.568 68.102 129.763 68.3271 129.854 68.5993C129.944 68.8715 129.923 69.1685 129.795 69.4251C129.666 69.6816 129.441 69.8767 129.169 69.9674C128.897 70.0581 128.6 70.037 128.343 69.9087Z" fill="#FA8F4B"/>
<path d="M137.691 52.0416L112.527 39.4495C112.172 39.2721 112.101 38.695 112.369 38.1606C112.636 37.6262 113.14 37.3368 113.495 37.5142L138.659 50.1064C139.014 50.2838 139.085 50.8608 138.817 51.3952C138.55 51.9296 138.046 52.2191 137.691 52.0416Z" fill="#FA8F4B"/>
<path d="M134.915 57.5894L109.751 44.9972C109.396 44.8198 109.326 44.2427 109.593 43.7083C109.86 43.1739 110.365 42.8845 110.719 43.062L135.884 55.6541C136.238 55.8316 136.309 56.4086 136.041 56.943C135.774 57.4774 135.27 57.7668 134.915 57.5894Z" fill="#FA8F4B"/>
<path d="M125.212 76.1662L87.2816 57.1858C87.0251 57.0572 86.8302 56.8322 86.7396 56.56C86.6491 56.2878 86.6703 55.9907 86.7987 55.7342C86.9271 55.4777 87.1521 55.2826 87.4242 55.1919C87.6963 55.1012 87.9934 55.1223 88.25 55.2505L126.181 74.2309C126.437 74.3594 126.632 74.5845 126.723 74.8567C126.813 75.1289 126.792 75.4259 126.664 75.6825C126.535 75.939 126.31 76.1341 126.038 76.2248C125.766 76.3155 125.469 76.2944 125.212 76.1662Z" fill="#FA8F4B"/>
<path d="M122.081 82.4233L84.1503 63.4429C84.0232 63.3793 83.9098 63.2914 83.8166 63.184C83.7235 63.0766 83.6524 62.952 83.6075 62.8171C83.5626 62.6823 83.5446 62.5399 83.5547 62.3981C83.5648 62.2563 83.6028 62.1179 83.6664 61.9908C83.73 61.8637 83.818 61.7503 83.9254 61.6573C84.0328 61.5642 84.1576 61.4932 84.2924 61.4483C84.4273 61.4034 84.5697 61.3856 84.7115 61.3958C84.8532 61.4059 84.9916 61.444 85.1187 61.5076L123.049 80.488C123.177 80.5516 123.29 80.6395 123.383 80.7469C123.476 80.8543 123.547 80.979 123.592 81.1138C123.637 81.2487 123.655 81.391 123.645 81.5328C123.635 81.6746 123.597 81.813 123.533 81.9401C123.47 82.0672 123.382 82.1806 123.274 82.2736C123.167 82.3667 123.042 82.4377 122.907 82.4826C122.772 82.5275 122.63 82.5453 122.488 82.5351C122.347 82.525 122.208 82.487 122.081 82.4233Z" fill="#FA8F4B"/>
<path d="M118.95 88.6805L81.0192 69.7001C80.8921 69.6365 80.7788 69.5485 80.6857 69.4411C80.5927 69.3337 80.5217 69.2091 80.4768 69.0743C80.4319 68.9395 80.414 68.7971 80.4241 68.6554C80.4342 68.5137 80.4722 68.3753 80.5357 68.2482C80.5993 68.1212 80.6873 68.0079 80.7947 67.9148C80.9021 67.8217 81.0267 67.7507 81.1615 67.7059C81.2963 67.661 81.4387 67.6431 81.5804 67.6532C81.7221 67.6633 81.8605 67.7012 81.9876 67.7648L119.918 86.7452C120.175 86.8737 120.37 87.0988 120.46 87.371C120.551 87.6432 120.53 87.9402 120.401 88.1968C120.273 88.4533 120.048 88.6484 119.776 88.7391C119.504 88.8298 119.207 88.8087 118.95 88.6805Z" fill="#FA8F4B"/>
<path d="M115.819 94.9379L77.8883 75.9575C77.6318 75.829 77.4369 75.6039 77.3463 75.3317C77.2558 75.0595 77.277 74.7625 77.4054 74.5059C77.5337 74.2494 77.7587 74.0543 78.0309 73.9636C78.303 73.8729 78.6001 73.894 78.8567 74.0222L116.787 93.0026C117.044 93.1311 117.239 93.3562 117.329 93.6284C117.42 93.9006 117.399 94.1977 117.27 94.4542C117.142 94.7107 116.917 94.9058 116.645 94.9965C116.373 95.0872 116.076 95.0661 115.819 94.9379Z" fill="#FA8F4B"/>
<path d="M112.688 101.195L74.757 82.2147C74.6299 82.1511 74.5166 82.0631 74.4235 81.9558C74.3305 81.8484 74.2595 81.7237 74.2146 81.5889C74.1239 81.3167 74.1451 81.0195 74.2735 80.7629C74.402 80.5063 74.6271 80.3112 74.8993 80.2205C75.1716 80.1298 75.4687 80.151 75.7254 80.2795L113.656 99.2599C113.783 99.3234 113.897 99.4114 113.99 99.5187C114.083 99.6261 114.154 99.7508 114.199 99.8856C114.244 100.02 114.262 100.163 114.252 100.305C114.242 100.446 114.204 100.585 114.14 100.712C114.076 100.839 113.988 100.952 113.881 101.045C113.774 101.139 113.649 101.21 113.514 101.254C113.379 101.299 113.237 101.317 113.095 101.307C112.953 101.297 112.815 101.259 112.688 101.195Z" fill="#FA8F4B"/>
<path d="M100.089 41.937C102.907 43.3389 106.327 42.1912 107.729 39.3734C109.131 36.5557 107.983 33.135 105.165 31.7331C102.348 30.3312 98.927 31.4789 97.5251 34.2967C96.1232 37.1144 97.271 40.5352 100.089 41.937Z" fill="#FA8F4B"/>
</g>
<path opacity="0.5" d="M132.625 49.8859L138.631 37.8145C139.554 36.0252 139.732 33.9435 139.126 32.0234C138.521 30.1032 137.181 28.5003 135.399 27.5641C133.616 26.6278 131.536 26.4342 129.611 27.0255C127.687 27.6167 126.074 28.9448 125.125 30.7202L126.628 31.4681C127.366 30.1183 128.597 29.1065 130.065 28.6444C131.532 28.1823 133.121 28.3058 134.5 28.989C134.526 29.0019 134.552 29.0152 134.578 29.0285C135.981 29.7548 137.038 31.0082 137.517 32.5134C137.996 34.0186 137.858 35.6525 137.134 37.0562L131.119 49.1447C131.104 49.1756 131.089 49.2064 131.075 49.2342C130.595 50.1676 129.767 50.8747 128.77 51.2027C127.773 51.5306 126.687 51.4531 125.746 50.9868C125.732 50.9795 125.717 50.9721 125.703 50.9647C124.76 50.4796 124.049 49.6404 123.726 48.6314C123.402 47.6224 123.492 46.5262 123.976 45.5837L129.95 33.5977C130.192 33.1301 130.608 32.776 131.108 32.6117C131.608 32.4474 132.153 32.4858 132.625 32.7188C133.097 32.9518 133.459 33.3607 133.633 33.8577C133.807 34.3547 133.779 34.9 133.555 35.3766L129 44.5328C128.901 44.732 128.885 44.9624 128.955 45.1734C129.026 45.3844 129.178 45.5586 129.377 45.6577C129.576 45.7568 129.807 45.7727 130.018 45.7019C130.229 45.6312 130.403 45.4795 130.502 45.2802L135.063 36.1121C135.481 35.2376 135.538 34.2338 135.222 33.3176C134.906 32.4014 134.241 31.6466 133.373 31.2164C132.504 30.7861 131.501 30.715 130.581 31.0185C129.66 31.3219 128.896 31.9755 128.454 32.8379L122.479 44.8266C121.795 46.1648 121.669 47.7199 122.13 49.1505C122.591 50.5812 123.6 51.7706 124.937 52.4579C124.958 52.4686 124.978 52.4789 124.999 52.4893C126.336 53.1516 127.879 53.2614 129.295 52.7951C130.712 52.3287 131.888 51.3237 132.57 49.9971C132.589 49.9581 132.609 49.9189 132.625 49.8859Z" fill="#96562D"/>
<g opacity="0.8">
<path d="M30.8609 157.563H29.5415L24.5308 149.894V157.563H23.2114V147.61H24.5308L29.5552 155.314V147.61H30.8609V157.563ZM32.6937 153.797C32.6937 153.072 32.835 152.421 33.1175 151.842C33.4047 151.263 33.8011 150.816 34.307 150.502C34.8174 150.188 35.3985 150.03 36.0502 150.03C37.0573 150.03 37.8708 150.379 38.4906 151.076C39.1149 151.773 39.4271 152.701 39.4271 153.858V153.947C39.4271 154.667 39.2881 155.314 39.0101 155.889C38.7367 156.458 38.3425 156.903 37.8275 157.222C37.3171 157.541 36.7292 157.7 36.0638 157.7C35.0612 157.7 34.2478 157.352 33.6234 156.654C33.0036 155.957 32.6937 155.034 32.6937 153.886V153.797ZM33.9652 153.947C33.9652 154.768 34.1543 155.426 34.5326 155.923C34.9154 156.42 35.4258 156.668 36.0638 156.668C36.7064 156.668 37.2168 156.417 37.5951 155.916C37.9733 155.41 38.1625 154.704 38.1625 153.797C38.1625 152.986 37.9688 152.329 37.5814 151.828C37.1986 151.322 36.6882 151.069 36.0502 151.069C35.4258 151.069 34.9222 151.318 34.5394 151.814C34.1566 152.311 33.9652 153.022 33.9652 153.947ZM50.25 154.966H46.0801L45.1436 157.563H43.7901L47.5909 147.61H48.7393L52.5469 157.563H51.2002L50.25 154.966ZM46.4766 153.886H49.8604L48.1651 149.23L46.4766 153.886ZM55.3163 148.376V150.167H56.6972V151.145H55.3163V155.731C55.3163 156.028 55.3778 156.251 55.5009 156.401C55.6239 156.547 55.8335 156.62 56.1298 156.62C56.2756 156.62 56.4761 156.593 56.7313 156.538V157.563C56.3986 157.655 56.0751 157.7 55.7606 157.7C55.1955 157.7 54.7694 157.529 54.4823 157.188C54.1952 156.846 54.0516 156.36 54.0516 155.731V151.145H52.705V150.167H54.0516V148.376H55.3163ZM59.9314 148.376V150.167H61.3122V151.145H59.9314V155.731C59.9314 156.028 59.9929 156.251 60.1159 156.401C60.239 156.547 60.4486 156.62 60.7448 156.62C60.8907 156.62 61.0912 156.593 61.3464 156.538V157.563C61.0137 157.655 60.6902 157.7 60.3757 157.7C59.8106 157.7 59.3845 157.529 59.0974 157.188C58.8103 156.846 58.6667 156.36 58.6667 155.731V151.145H57.32V150.167H58.6667V148.376H59.9314ZM67.397 157.563C67.3241 157.418 67.2649 157.158 67.2193 156.784C66.6314 157.395 65.9296 157.7 65.1138 157.7C64.3847 157.7 63.7854 157.495 63.316 157.085C62.8511 156.67 62.6187 156.146 62.6187 155.513C62.6187 154.743 62.9104 154.146 63.4937 153.722C64.0816 153.293 64.9065 153.079 65.9683 153.079H67.1988V152.498C67.1988 152.056 67.0666 151.705 66.8023 151.445C66.538 151.181 66.1483 151.049 65.6334 151.049C65.1822 151.049 64.8039 151.163 64.4986 151.391C64.1933 151.618 64.0406 151.894 64.0406 152.218H62.7691C62.7691 151.849 62.899 151.493 63.1588 151.151C63.4231 150.805 63.7785 150.532 64.2252 150.331C64.6763 150.131 65.1708 150.03 65.7086 150.03C66.5608 150.03 67.2284 150.244 67.7115 150.673C68.1946 151.097 68.4452 151.682 68.4634 152.43V155.834C68.4634 156.513 68.55 157.053 68.7232 157.454V157.563H67.397ZM65.2984 156.6C65.6949 156.6 66.0709 156.497 66.4263 156.292C66.7818 156.087 67.0393 155.82 67.1988 155.492V153.975H66.2076C64.6581 153.975 63.8834 154.428 63.8834 155.335C63.8834 155.731 64.0155 156.041 64.2798 156.265C64.5442 156.488 64.8837 156.6 65.2984 156.6ZM73.4477 156.668C73.8988 156.668 74.293 156.531 74.6303 156.258C74.9675 155.984 75.1544 155.643 75.1908 155.232H76.3871C76.3643 155.656 76.2185 156.06 75.9496 156.442C75.6807 156.825 75.3207 157.131 74.8695 157.358C74.4229 157.586 73.949 157.7 73.4477 157.7C72.4405 157.7 71.6384 157.365 71.0414 156.695C70.449 156.021 70.1527 155.1 70.1527 153.934V153.722C70.1527 153.002 70.2849 152.361 70.5492 151.801C70.8135 151.24 71.1918 150.805 71.684 150.495C72.1807 150.185 72.7663 150.03 73.4408 150.03C74.2702 150.03 74.9584 150.279 75.5053 150.775C76.0567 151.272 76.3507 151.917 76.3871 152.71H75.1908C75.1544 152.231 74.9721 151.84 74.6439 151.534C74.3204 151.224 73.9193 151.069 73.4408 151.069C72.7982 151.069 72.2992 151.302 71.9438 151.767C71.5928 152.227 71.4174 152.895 71.4174 153.77V154.009C71.4174 154.861 71.5928 155.517 71.9438 155.978C72.2947 156.438 72.796 156.668 73.4477 156.668ZM79.1086 151.062C79.6692 150.374 80.3983 150.03 81.2961 150.03C82.8593 150.03 83.6477 150.912 83.6614 152.676V157.563H82.3967V152.669C82.3922 152.136 82.2691 151.742 82.0276 151.486C81.7906 151.231 81.4192 151.104 80.9133 151.104C80.5032 151.104 80.1431 151.213 79.8332 151.432C79.5233 151.65 79.2818 151.938 79.1086 152.293V157.563H77.844V147.063H79.1086V151.062ZM86.7794 150.167L86.8136 150.987C87.3559 150.349 88.0873 150.03 89.0079 150.03C90.0424 150.03 90.7465 150.427 91.1202 151.22C91.3663 150.864 91.6853 150.577 92.0772 150.358C92.4737 150.14 92.9408 150.03 93.4786 150.03C95.101 150.03 95.9259 150.889 95.9532 152.607V157.563H94.6886V152.683C94.6886 152.154 94.5678 151.76 94.3263 151.5C94.0847 151.236 93.6791 151.104 93.1095 151.104C92.6401 151.104 92.2504 151.245 91.9405 151.527C91.6306 151.805 91.4506 152.181 91.4005 152.655V157.563H90.129V152.717C90.129 151.641 89.6026 151.104 88.5499 151.104C87.7205 151.104 87.1531 151.457 86.8477 152.163V157.563H85.5831V150.167H86.7794ZM100.972 157.7C99.969 157.7 99.1532 157.372 98.5243 156.716C97.8954 156.055 97.581 155.173 97.581 154.07V153.838C97.581 153.104 97.72 152.45 97.998 151.876C98.2805 151.297 98.6724 150.846 99.1738 150.522C99.6796 150.194 100.226 150.03 100.814 150.03C101.776 150.03 102.523 150.347 103.057 150.98C103.59 151.614 103.856 152.521 103.856 153.701V154.228H98.8456C98.8639 154.957 99.0758 155.547 99.4814 155.998C99.8915 156.445 100.411 156.668 101.04 156.668C101.487 156.668 101.865 156.577 102.175 156.395C102.485 156.212 102.756 155.971 102.988 155.67L103.761 156.271C103.141 157.224 102.211 157.7 100.972 157.7ZM100.814 151.069C100.304 151.069 99.8756 151.256 99.5292 151.63C99.1829 151.999 98.9687 152.519 98.8866 153.188H102.592V153.093C102.555 152.45 102.382 151.953 102.072 151.603C101.762 151.247 101.343 151.069 100.814 151.069ZM106.557 150.167L106.598 151.097C107.164 150.386 107.902 150.03 108.813 150.03C110.376 150.03 111.165 150.912 111.178 152.676V157.563H109.914V152.669C109.909 152.136 109.786 151.742 109.545 151.486C109.308 151.231 108.936 151.104 108.43 151.104C108.02 151.104 107.66 151.213 107.35 151.432C107.04 151.65 106.799 151.938 106.626 152.293V157.563H105.361V150.167H106.557ZM114.837 148.376V150.167H116.217V151.145H114.837V155.731C114.837 156.028 114.898 156.251 115.021 156.401C115.144 156.547 115.354 156.62 115.65 156.62C115.796 156.62 115.996 156.593 116.252 156.538V157.563C115.919 157.655 115.595 157.7 115.281 157.7C114.716 157.7 114.29 157.529 114.003 157.188C113.715 156.846 113.572 156.36 113.572 155.731V151.145H112.225V150.167H113.572V148.376H114.837ZM122.042 155.602C122.042 155.26 121.913 154.995 121.653 154.809C121.398 154.617 120.949 154.453 120.306 154.316C119.668 154.18 119.16 154.016 118.782 153.824C118.408 153.633 118.13 153.405 117.948 153.141C117.77 152.876 117.681 152.562 117.681 152.197C117.681 151.591 117.936 151.078 118.447 150.659C118.962 150.24 119.618 150.03 120.415 150.03C121.254 150.03 121.933 150.247 122.453 150.68C122.977 151.113 123.239 151.666 123.239 152.341H121.967C121.967 151.994 121.819 151.696 121.523 151.445C121.231 151.195 120.862 151.069 120.415 151.069C119.955 151.069 119.595 151.17 119.335 151.37C119.076 151.571 118.946 151.833 118.946 152.156C118.946 152.462 119.067 152.692 119.308 152.847C119.55 153.002 119.985 153.15 120.614 153.291C121.247 153.432 121.76 153.601 122.152 153.797C122.544 153.993 122.833 154.23 123.02 154.508C123.211 154.781 123.307 155.116 123.307 155.513C123.307 156.174 123.043 156.704 122.514 157.105C121.985 157.502 121.3 157.7 120.456 157.7C119.864 157.7 119.34 157.595 118.884 157.386C118.428 157.176 118.071 156.884 117.811 156.511C117.556 156.132 117.428 155.725 117.428 155.287H118.693C118.716 155.711 118.884 156.048 119.199 156.299C119.518 156.545 119.937 156.668 120.456 156.668C120.935 156.668 121.318 156.572 121.605 156.381C121.897 156.185 122.042 155.925 122.042 155.602ZM134.192 154.966H130.022L129.085 157.563H127.732L131.532 147.61H132.681L136.488 157.563H135.142L134.192 154.966ZM130.418 153.886H133.802L132.107 149.23L130.418 153.886ZM137.357 153.804C137.357 152.669 137.626 151.757 138.164 151.069C138.702 150.377 139.406 150.03 140.276 150.03C141.142 150.03 141.828 150.326 142.334 150.919V147.063H143.599V157.563H142.436L142.375 156.771C141.869 157.39 141.165 157.7 140.263 157.7C139.406 157.7 138.706 157.349 138.164 156.647C137.626 155.946 137.357 155.03 137.357 153.899V153.804ZM138.622 153.947C138.622 154.786 138.795 155.442 139.142 155.916C139.488 156.39 139.966 156.627 140.577 156.627C141.379 156.627 141.965 156.267 142.334 155.547V152.149C141.956 151.452 141.375 151.104 140.591 151.104C139.971 151.104 139.488 151.343 139.142 151.821C138.795 152.3 138.622 153.008 138.622 153.947ZM145.295 153.804C145.295 152.669 145.564 151.757 146.101 151.069C146.639 150.377 147.343 150.03 148.214 150.03C149.08 150.03 149.765 150.326 150.271 150.919V147.063H151.536V157.563H150.374L150.312 156.771C149.806 157.39 149.102 157.7 148.2 157.7C147.343 157.7 146.644 157.349 146.101 156.647C145.564 155.946 145.295 155.03 145.295 153.899V153.804ZM146.559 153.947C146.559 154.786 146.733 155.442 147.079 155.916C147.425 156.39 147.904 156.627 148.514 156.627C149.317 156.627 149.902 156.267 150.271 155.547V152.149C149.893 151.452 149.312 151.104 148.528 151.104C147.908 151.104 147.425 151.343 147.079 151.821C146.733 152.3 146.559 153.008 146.559 153.947ZM156.609 157.7C155.606 157.7 154.791 157.372 154.162 156.716C153.533 156.055 153.218 155.173 153.218 154.07V153.838C153.218 153.104 153.357 152.45 153.635 151.876C153.918 151.297 154.31 150.846 154.811 150.522C155.317 150.194 155.864 150.03 156.452 150.03C157.413 150.03 158.161 150.347 158.694 150.98C159.227 151.614 159.494 152.521 159.494 153.701V154.228H154.483C154.501 154.957 154.713 155.547 155.119 155.998C155.529 156.445 156.048 156.668 156.677 156.668C157.124 156.668 157.502 156.577 157.812 156.395C158.122 156.212 158.393 155.971 158.626 155.67L159.398 156.271C158.778 157.224 157.849 157.7 156.609 157.7ZM156.452 151.069C155.941 151.069 155.513 151.256 155.167 151.63C154.82 151.999 154.606 152.519 154.524 153.188H158.229V153.093C158.193 152.45 158.02 151.953 157.71 151.603C157.4 151.247 156.98 151.069 156.452 151.069ZM160.691 153.804C160.691 152.669 160.96 151.757 161.498 151.069C162.035 150.377 162.739 150.03 163.61 150.03C164.476 150.03 165.162 150.326 165.667 150.919V147.063H166.932V157.563H165.77L165.708 156.771C165.203 157.39 164.499 157.7 163.596 157.7C162.739 157.7 162.04 157.349 161.498 156.647C160.96 155.946 160.691 155.03 160.691 153.899V153.804ZM161.956 153.947C161.956 154.786 162.129 155.442 162.475 155.916C162.821 156.39 163.3 156.627 163.911 156.627C164.713 156.627 165.298 156.267 165.667 155.547V152.149C165.289 151.452 164.708 151.104 163.924 151.104C163.304 151.104 162.821 151.343 162.475 151.821C162.129 152.3 161.956 153.008 161.956 153.947Z" fill="white"/>
</g>
</svg>
