<svg width="24" height="24" viewBox="0 0 24 24" fill="none" xmlns="http://www.w3.org/2000/svg">
<path d="M18.8906 1.40625H18.0469V0H16.6406V1.40625H7.35938V0H5.95312V1.40625H5.10938C3.9462 1.40625 3 2.35245 3 3.51562V15.8906C3 17.0538 3.9462 18 5.10938 18H18.8906C20.0538 18 21 17.0538 21 15.8906V3.51562C21 2.35245 20.0538 1.40625 18.8906 1.40625ZM5.10938 2.8125H5.95312V4.21875H7.35938V2.8125H16.6406V4.21875H18.0469V2.8125H18.8906C19.2783 2.8125 19.5938 3.12794 19.5938 3.51562V5.20312H4.40625V3.51562C4.40625 3.12794 4.72169 2.8125 5.10938 2.8125ZM18.8906 16.5938H5.10938C4.72169 16.5938 4.40625 16.2783 4.40625 15.8906V6.60938H19.5938V15.8906C19.5938 16.2783 19.2783 16.5938 18.8906 16.5938ZM5.67188 8.08594H7.07812V9.49219H5.67188V8.08594ZM8.48438 8.08594H9.89062V9.49219H8.48438V8.08594ZM11.2969 8.08594H12.7031V9.49219H11.2969V8.08594ZM15.5156 9.49219H14.1094V8.08594H15.5156V9.49219ZM18.3281 9.49219H16.9219V8.08594H18.3281V9.49219ZM5.67188 10.8984H7.07812V12.3047H5.67188V10.8984ZM8.48438 10.8984H9.89062V12.3047H8.48438V10.8984ZM11.2969 10.8984H12.7031V12.3047H11.2969V10.8984ZM5.67188 13.7109H7.07812V15.1172H5.67188V13.7109ZM8.48438 13.7109H9.89062V15.1172H8.48438V13.7109ZM11.2969 13.7109H12.7031V15.1172H11.2969V13.7109ZM18.5391 12.4787L17.3789 13.5872L17.6527 15.1523L16.2188 14.4134L14.7848 15.1523L15.0586 13.5872L13.8984 12.4787L15.5018 12.2504L16.2188 10.8263L16.9357 12.2503L18.5391 12.4787Z" fill="white"/>
</svg>
