<svg width="18" height="18" viewBox="0 0 18 18" fill="none" xmlns="http://www.w3.org/2000/svg">
<path d="M11.6289 0.0720687C11.6014 0.0737567 11.5738 0.0766043 11.546 0.0816683L4.19839 1.41761C4.17741 1.42144 4.15659 1.42618 4.13603 1.43192C3.571 1.58889 3.07677 1.91232 2.70675 2.36728C2.67005 2.41239 2.63911 2.46189 2.6146 2.51462L0.763593 6.49818C0.264058 7.57325 -4.03537e-07 8.76814 -3.5172e-07 9.95358L-3.07346e-08 17.2969C-1.37599e-08 17.6852 0.314789 18 0.703125 18C1.09146 18 1.40625 17.6852 1.40625 17.2969L1.40625 9.95358C1.40625 8.97142 1.62503 7.98145 2.03889 7.09073L3.84926 3.19475C4.0211 3.00575 4.23896 2.86854 4.48464 2.79492L8.18603 2.12192C7.74689 2.68608 7.41561 3.33791 7.22292 4.04634C6.03678 4.27792 5.93778 4.31086 5.89482 4.3252C5.52639 4.44797 5.32737 4.84611 5.45013 5.21459C5.57072 5.57627 5.9568 5.7748 6.31948 5.66564C6.39457 5.64655 6.68563 5.58661 7.03178 5.51753C7.04 6.90205 7.56313 8.20512 8.47719 9.19709C8.00234 9.29598 7.55951 9.39164 7.18998 9.47398C6.89984 9.23418 6.37727 8.72107 6.06966 7.93515C5.92815 7.57353 5.52027 7.39515 5.15865 7.53666C4.79703 7.6782 4.61855 8.08601 4.76016 8.4477C5.37729 10.0245 6.61057 10.7972 6.66274 10.8293C6.81964 10.9259 7.00815 10.957 7.18773 10.916C9.33279 10.4264 12.2174 9.87891 12.8672 9.87891C13.2484 9.87891 13.5703 10.209 13.5703 10.5996C13.5703 10.8369 13.4539 11.0537 13.2573 11.1848L7.02369 14.2035C6.98871 14.2205 6.95521 14.2403 6.92353 14.2627C6.39661 14.6362 6.08203 15.2448 6.08203 15.8906L6.08203 17.2969C6.08203 17.6852 6.39682 18 6.78516 18C7.17349 18 7.48828 17.6852 7.48828 17.2969L7.48828 15.8906C7.48828 15.7157 7.56643 15.5501 7.69939 15.4388L13.9064 12.4329C13.9271 12.4229 13.9472 12.4119 13.9668 12.3999C14.5991 12.0131 14.9766 11.3401 14.9766 10.5996C14.9766 10.5294 14.973 10.4601 14.9664 10.3917C16.8214 9.46702 18 7.58109 18 5.48437C18 4.56543 17.768 3.65593 17.3292 2.8543C17.1428 2.51367 16.7155 2.38873 16.3748 2.57516C16.0342 2.76159 15.9092 3.18888 16.0957 3.52951C16.4216 4.12474 16.5937 4.80073 16.5937 5.48437C16.5937 7.02935 15.7332 8.42041 14.3755 9.11478C13.9922 8.719 13.4578 8.47266 12.8672 8.47266C12.3972 8.47266 11.3483 8.63968 10.2154 8.85199C9.10037 8.08935 8.4375 6.83803 8.4375 5.48437C8.4375 3.23568 10.2669 1.40625 12.5156 1.40625C12.9467 1.40625 13.3709 1.47301 13.7764 1.60471C14.1458 1.72462 14.5424 1.52244 14.6623 1.15312C14.6857 1.08095 14.6969 1.00779 14.6969 0.935823C14.6969 0.639386 14.5079 0.363691 14.2107 0.267186C13.6648 0.0898947 13.0944 -5.72376e-07 12.5156 -5.47075e-07C12.2138 -5.33881e-07 11.9177 0.0248904 11.6289 0.0720687Z" fill="white"/>
</svg>
