<svg width="17" height="22" viewBox="0 0 17 22" fill="none" xmlns="http://www.w3.org/2000/svg">
<path fill-rule="evenodd" clip-rule="evenodd" d="M16.569 5.34497L11.4128 0.188848C11.2925 0.0684492 11.1282 0 10.957 0H1.93359C0.86741 0 0 0.86741 0 1.93359V20.0664C0 21.1326 0.86741 22 1.93359 22H14.8242C15.8904 22 16.7578 21.1326 16.7578 20.0664V5.80078C16.7578 5.62504 16.684 5.46 16.569 5.34497ZM11.6016 2.20056L14.5573 5.15625H12.2461C11.8907 5.15625 11.6016 4.86711 11.6016 4.51172V2.20056ZM14.8242 20.7109H1.93359C1.5782 20.7109 1.28906 20.4218 1.28906 20.0664V1.93359C1.28906 1.5782 1.5782 1.28906 1.93359 1.28906H10.3125V4.51172C10.3125 5.5779 11.1799 6.44531 12.2461 6.44531H15.4688V20.0664C15.4688 20.4218 15.1796 20.7109 14.8242 20.7109ZM12.2461 9.10938H4.51172C4.15577 9.10938 3.86719 9.39795 3.86719 9.75391C3.86719 10.1099 4.15577 10.3984 4.51172 10.3984H12.2461C12.602 10.3984 12.8906 10.1099 12.8906 9.75391C12.8906 9.39795 12.602 9.10938 12.2461 9.10938ZM4.51172 11.6875H12.2461C12.602 11.6875 12.8906 11.9761 12.8906 12.332C12.8906 12.688 12.602 12.9766 12.2461 12.9766H4.51172C4.15577 12.9766 3.86719 12.688 3.86719 12.332C3.86719 11.9761 4.15577 11.6875 4.51172 11.6875ZM12.2461 14.2656H4.51172C4.15577 14.2656 3.86719 14.5542 3.86719 14.9102C3.86719 15.2661 4.15577 15.5547 4.51172 15.5547H12.2461C12.602 15.5547 12.8906 15.2661 12.8906 14.9102C12.8906 14.5542 12.602 14.2656 12.2461 14.2656ZM4.51172 16.8438H9.66797C10.0239 16.8438 10.3125 17.1323 10.3125 17.4883C10.3125 17.8442 10.0239 18.1328 9.66797 18.1328H4.51172C4.15577 18.1328 3.86719 17.8442 3.86719 17.4883C3.86719 17.1323 4.15577 16.8438 4.51172 16.8438Z" fill="white"/>
</svg>
