<svg width="191" height="147" viewBox="0 0 191 147" fill="none" xmlns="http://www.w3.org/2000/svg">
<ellipse opacity="0.05" cx="95.5" cy="92" rx="95.5" ry="19" fill="black"/>
<path d="M33.7941 24.6929L88.4622 15.7969V67.5541L36.5204 64.8349L33.7941 24.6929Z" fill="#FA8F4B"/>
<path opacity="0.05" d="M33.7941 24.6929L88.4622 15.7969V67.5541L36.5204 64.8349L33.7941 24.6929Z" fill="black"/>
<path d="M88.4622 15.7969L154.021 20.7028L150.393 65.7436L88.4622 67.5541V15.7969Z" fill="#DF7D3E"/>
<path opacity="0.1" d="M88.4622 15.7969L154.021 20.7028L150.393 65.7436L88.4622 67.5541V15.7969Z" fill="black"/>
<path opacity="0.4" d="M108.618 0L88.4622 15.7969L154.021 20.7029L164.735 4.53675L108.618 0Z" fill="#FA8F4B"/>
<path d="M14 7.44043L63.2155 1.44824L88.4622 15.7968L33.7941 24.6928L14 7.44043Z" fill="#FA8F4B"/>
<path d="M100.447 29.2367V99.9999L74.8377 97.373L63.6982 96.2371L60.3045 95.8821L49.1721 94.739L33.7941 93.1629V24.6929L88.4551 28.4132L100.447 29.2367Z" fill="#FA8F4B"/>
<path d="M154.021 20.7029V89.7125L133.496 93.6528L123.514 95.5698L100.447 100V29.2368L154.021 20.7029Z" fill="#DF7D3E"/>
<path opacity="0.05" d="M154.021 20.7029V89.7125L133.496 93.6528L123.514 95.5698L100.447 100V29.2368L154.021 20.7029Z" fill="#DF7D3E"/>
<path d="M14 39.5882L33.7941 24.6929L100.447 29.2367L90.6347 45.7649L14 39.5882Z" fill="#FA8F4B"/>
<path opacity="0.1" d="M14 39.5882L33.7941 24.6929L100.447 29.2367L90.6347 45.7649L14 39.5882Z" fill="white"/>
<path opacity="0.5" d="M154.021 20.7029L100.447 29.2368L117.884 44.8562L175.271 35.229L154.021 20.7029Z" fill="#FA8F4B"/>
<path opacity="0.1" d="M154.021 20.7029L100.447 29.2368L117.884 44.8562L175.271 35.229L154.021 20.7029Z" fill="#FA8F4B"/>
<path opacity="0.1" d="M133.496 93.6527L123.514 95.5696V80.8234L132.864 78.4663L133.496 93.6527Z" fill="white"/>
<path opacity="0.1" d="M74.8378 87.6179V97.373L63.6982 96.237V87.6179H74.8378Z" fill="white"/>
<path opacity="0.1" d="M60.3046 90.6924V95.8823L49.1722 94.7392V90.6924H60.3046Z" fill="white"/>
<g opacity="0.8">
<path d="M36.1587 143.563H34.8394L29.8286 135.894V143.563H28.5093V133.61H29.8286L34.8531 141.314V133.61H36.1587V143.563ZM37.9916 139.797C37.9916 139.072 38.1328 138.421 38.4154 137.842C38.7025 137.263 39.099 136.816 39.6048 136.502C40.1153 136.188 40.6963 136.03 41.348 136.03C42.3552 136.03 43.1686 136.379 43.7884 137.076C44.4128 137.773 44.725 138.701 44.725 139.858V139.947C44.725 140.667 44.586 141.314 44.308 141.889C44.0345 142.458 43.6403 142.903 43.1254 143.222C42.6149 143.541 42.027 143.7 41.3617 143.7C40.3591 143.7 39.5456 143.352 38.9213 142.654C38.3015 141.957 37.9916 141.034 37.9916 139.886V139.797ZM39.2631 139.947C39.2631 140.768 39.4522 141.426 39.8304 141.923C40.2132 142.42 40.7237 142.668 41.3617 142.668C42.0043 142.668 42.5147 142.417 42.8929 141.916C43.2712 141.41 43.4603 140.704 43.4603 139.797C43.4603 138.986 43.2666 138.329 42.8793 137.828C42.4964 137.322 41.986 137.069 41.348 137.069C40.7237 137.069 40.2201 137.318 39.8373 137.814C39.4545 138.311 39.2631 139.022 39.2631 139.947ZM53.7022 139.537H51.3643V143.563H50.045V133.61H53.3399C54.461 133.61 55.3223 133.866 55.9239 134.376C56.53 134.886 56.833 135.629 56.833 136.604C56.833 137.224 56.6644 137.764 56.3272 138.225C55.9945 138.685 55.5297 139.029 54.9327 139.257L57.2705 143.481V143.563H55.8623L53.7022 139.537ZM51.3643 138.464H53.3809C54.0326 138.464 54.5498 138.295 54.9327 137.958C55.32 137.621 55.5137 137.17 55.5137 136.604C55.5137 135.989 55.3291 135.518 54.96 135.189C54.5954 134.861 54.0668 134.695 53.3741 134.69H51.3643V138.464ZM61.5848 143.7C60.5822 143.7 59.7665 143.372 59.1376 142.716C58.5087 142.055 58.1942 141.173 58.1942 140.07V139.838C58.1942 139.104 58.3332 138.45 58.6112 137.876C58.8938 137.297 59.2857 136.846 59.787 136.522C60.2929 136.194 60.8397 136.03 61.4276 136.03C62.3892 136.03 63.1366 136.347 63.6698 136.98C64.203 137.614 64.4696 138.521 64.4696 139.701V140.228H59.4589C59.4771 140.957 59.689 141.547 60.0946 141.998C60.5048 142.445 61.0243 142.668 61.6532 142.668C62.0998 142.668 62.4781 142.577 62.788 142.395C63.0979 142.212 63.369 141.971 63.6014 141.67L64.3739 142.271C63.7541 143.224 62.8244 143.7 61.5848 143.7ZM61.4276 137.069C60.9172 137.069 60.4888 137.256 60.1425 137.63C59.7961 137.999 59.5819 138.519 59.4999 139.188H63.205V139.093C63.1685 138.45 62.9953 137.953 62.6854 137.603C62.3755 137.247 61.9563 137.069 61.4276 137.069ZM65.6667 139.804C65.6667 138.642 65.9333 137.723 66.4665 137.049C66.9997 136.37 67.7152 136.03 68.613 136.03C69.488 136.03 70.1784 136.324 70.6843 136.912L70.739 136.167H71.9011V146.407H70.6364V142.88C70.126 143.427 69.447 143.7 68.5993 143.7C67.7061 143.7 66.9929 143.354 66.4597 142.661C65.931 141.964 65.6667 141.041 65.6667 139.893V139.804ZM66.9314 139.947C66.9314 140.795 67.1091 141.46 67.4646 141.943C67.8246 142.426 68.3077 142.668 68.9138 142.668C69.6657 142.668 70.24 142.335 70.6364 141.67V138.047C70.2354 137.395 69.6657 137.069 68.9275 137.069C68.3168 137.069 67.8314 137.313 67.4714 137.801C67.1114 138.284 66.9314 138.999 66.9314 139.947ZM78.5328 142.832C78.0406 143.411 77.3183 143.7 76.3658 143.7C75.5774 143.7 74.9758 143.472 74.5611 143.017C74.1509 142.556 73.9436 141.877 73.939 140.979V136.167H75.2037V140.945C75.2037 142.066 75.6594 142.627 76.5709 142.627C77.537 142.627 78.1796 142.267 78.4986 141.547V136.167H79.7632V143.563H78.5601L78.5328 142.832ZM83.1 143.563H81.8354V136.167H83.1V143.563ZM81.7328 134.205C81.7328 134 81.7943 133.827 81.9174 133.686C82.045 133.544 82.2318 133.474 82.4779 133.474C82.724 133.474 82.9109 133.544 83.0385 133.686C83.1661 133.827 83.2299 134 83.2299 134.205C83.2299 134.41 83.1661 134.581 83.0385 134.718C82.9109 134.854 82.724 134.923 82.4779 134.923C82.2318 134.923 82.045 134.854 81.9174 134.718C81.7943 134.581 81.7328 134.41 81.7328 134.205ZM89.4719 141.602C89.4719 141.26 89.342 140.995 89.0823 140.809C88.8271 140.617 88.3782 140.453 87.7356 140.316C87.0976 140.18 86.5894 140.016 86.2112 139.824C85.8375 139.633 85.5595 139.405 85.3772 139.141C85.1995 138.876 85.1106 138.562 85.1106 138.197C85.1106 137.591 85.3658 137.078 85.8762 136.659C86.3912 136.24 87.0474 136.03 87.845 136.03C88.6835 136.03 89.3625 136.247 89.8821 136.68C90.4062 137.113 90.6682 137.666 90.6682 138.341H89.3967C89.3967 137.994 89.2486 137.696 88.9524 137.445C88.6607 137.195 88.2916 137.069 87.845 137.069C87.3847 137.069 87.0247 137.17 86.7649 137.37C86.5051 137.571 86.3752 137.833 86.3752 138.156C86.3752 138.462 86.496 138.692 86.7375 138.847C86.9791 139.002 87.4143 139.15 88.0432 139.291C88.6767 139.432 89.1894 139.601 89.5813 139.797C89.9732 139.993 90.2626 140.23 90.4495 140.508C90.6409 140.781 90.7366 141.116 90.7366 141.513C90.7366 142.174 90.4722 142.704 89.9436 143.105C89.415 143.502 88.7291 143.7 87.886 143.7C87.2935 143.7 86.7694 143.595 86.3137 143.386C85.858 143.176 85.5002 142.884 85.2405 142.511C84.9853 142.132 84.8577 141.725 84.8577 141.287H86.1223C86.1451 141.711 86.3137 142.048 86.6282 142.299C86.9472 142.545 87.3664 142.668 87.886 142.668C88.3645 142.668 88.7473 142.572 89.0344 142.381C89.3261 142.185 89.4719 141.925 89.4719 141.602ZM93.7931 143.563H92.5284V136.167H93.7931V143.563ZM92.4259 134.205C92.4259 134 92.4874 133.827 92.6104 133.686C92.738 133.544 92.9249 133.474 93.171 133.474C93.4171 133.474 93.6039 133.544 93.7315 133.686C93.8591 133.827 93.9229 134 93.9229 134.205C93.9229 134.41 93.8591 134.581 93.7315 134.718C93.6039 134.854 93.4171 134.923 93.171 134.923C92.9249 134.923 92.738 134.854 92.6104 134.718C92.4874 134.581 92.4259 134.41 92.4259 134.205ZM97.5741 134.376V136.167H98.955V137.145H97.5741V141.731C97.5741 142.028 97.6357 142.251 97.7587 142.401C97.8818 142.547 98.0914 142.62 98.3876 142.62C98.5335 142.62 98.734 142.593 98.9892 142.538V143.563C98.6565 143.655 98.3329 143.7 98.0185 143.7C97.4534 143.7 97.0273 143.529 96.7402 143.188C96.453 142.846 96.3095 142.36 96.3095 141.731V137.145H94.9628V136.167H96.3095V134.376H97.5741ZM101.847 143.563H100.583V136.167H101.847V143.563ZM100.48 134.205C100.48 134 100.542 133.827 100.665 133.686C100.792 133.544 100.979 133.474 101.225 133.474C101.471 133.474 101.658 133.544 101.786 133.686C101.914 133.827 101.977 134 101.977 134.205C101.977 134.41 101.914 134.581 101.786 134.718C101.658 134.854 101.471 134.923 101.225 134.923C100.979 134.923 100.792 134.854 100.665 134.718C100.542 134.581 100.48 134.41 100.48 134.205ZM103.578 139.797C103.578 139.072 103.719 138.421 104.002 137.842C104.289 137.263 104.685 136.816 105.191 136.502C105.701 136.188 106.282 136.03 106.934 136.03C107.941 136.03 108.755 136.379 109.375 137.076C109.999 137.773 110.311 138.701 110.311 139.858V139.947C110.311 140.667 110.172 141.314 109.894 141.889C109.621 142.458 109.226 142.903 108.712 143.222C108.201 143.541 107.613 143.7 106.948 143.7C105.945 143.7 105.132 143.352 104.507 142.654C103.888 141.957 103.578 141.034 103.578 139.886V139.797ZM104.849 139.947C104.849 140.768 105.038 141.426 105.417 141.923C105.799 142.42 106.31 142.668 106.948 142.668C107.59 142.668 108.101 142.417 108.479 141.916C108.857 141.41 109.046 140.704 109.046 139.797C109.046 138.986 108.853 138.329 108.465 137.828C108.083 137.322 107.572 137.069 106.934 137.069C106.31 137.069 105.806 137.318 105.423 137.814C105.041 138.311 104.849 139.022 104.849 139.947ZM113.128 136.167L113.169 137.097C113.734 136.386 114.473 136.03 115.384 136.03C116.947 136.03 117.736 136.912 117.749 138.676V143.563H116.485V138.669C116.48 138.136 116.357 137.742 116.116 137.486C115.879 137.231 115.507 137.104 115.001 137.104C114.591 137.104 114.231 137.213 113.921 137.432C113.611 137.65 113.37 137.938 113.197 138.293V143.563H111.932V136.167H113.128ZM128.894 140.966H124.724L123.787 143.563H122.434L126.234 133.61H127.383L131.191 143.563H129.844L128.894 140.966ZM125.12 139.886H128.504L126.809 135.23L125.12 139.886ZM132.06 139.804C132.06 138.669 132.328 137.757 132.866 137.069C133.404 136.377 134.108 136.03 134.978 136.03C135.844 136.03 136.53 136.326 137.036 136.919V133.063H138.301V143.563H137.139L137.077 142.771C136.571 143.39 135.867 143.7 134.965 143.7C134.108 143.7 133.408 143.349 132.866 142.647C132.328 141.946 132.06 141.03 132.06 139.899V139.804ZM133.324 139.947C133.324 140.786 133.497 141.442 133.844 141.916C134.19 142.39 134.669 142.627 135.279 142.627C136.081 142.627 136.667 142.267 137.036 141.547V138.149C136.658 137.452 136.077 137.104 135.293 137.104C134.673 137.104 134.19 137.343 133.844 137.821C133.497 138.3 133.324 139.008 133.324 139.947ZM139.997 139.804C139.997 138.669 140.266 137.757 140.804 137.069C141.341 136.377 142.045 136.03 142.916 136.03C143.782 136.03 144.468 136.326 144.973 136.919V133.063H146.238V143.563H145.076L145.014 142.771C144.509 143.39 143.804 143.7 142.902 143.7C142.045 143.7 141.346 143.349 140.804 142.647C140.266 141.946 139.997 141.03 139.997 139.899V139.804ZM141.262 139.947C141.262 140.786 141.435 141.442 141.781 141.916C142.127 142.39 142.606 142.627 143.217 142.627C144.019 142.627 144.604 142.267 144.973 141.547V138.149C144.595 137.452 144.014 137.104 143.23 137.104C142.61 137.104 142.127 137.343 141.781 137.821C141.435 138.3 141.262 139.008 141.262 139.947ZM151.311 143.7C150.309 143.7 149.493 143.372 148.864 142.716C148.235 142.055 147.921 141.173 147.921 140.07V139.838C147.921 139.104 148.06 138.45 148.338 137.876C148.62 137.297 149.012 136.846 149.513 136.522C150.019 136.194 150.566 136.03 151.154 136.03C152.116 136.03 152.863 136.347 153.396 136.98C153.929 137.614 154.196 138.521 154.196 139.701V140.228H149.185C149.203 140.957 149.415 141.547 149.821 141.998C150.231 142.445 150.751 142.668 151.38 142.668C151.826 142.668 152.204 142.577 152.514 142.395C152.824 142.212 153.095 141.971 153.328 141.67L154.1 142.271C153.48 143.224 152.551 143.7 151.311 143.7ZM151.154 137.069C150.644 137.069 150.215 137.256 149.869 137.63C149.522 137.999 149.308 138.519 149.226 139.188H152.931V139.093C152.895 138.45 152.722 137.953 152.412 137.603C152.102 137.247 151.683 137.069 151.154 137.069ZM155.393 139.804C155.393 138.669 155.662 137.757 156.2 137.069C156.737 136.377 157.442 136.03 158.312 136.03C159.178 136.03 159.864 136.326 160.37 136.919V133.063H161.634V143.563H160.472L160.411 142.771C159.905 143.39 159.201 143.7 158.298 143.7C157.442 143.7 156.742 143.349 156.2 142.647C155.662 141.946 155.393 141.03 155.393 139.899V139.804ZM156.658 139.947C156.658 140.786 156.831 141.442 157.177 141.916C157.524 142.39 158.002 142.627 158.613 142.627C159.415 142.627 160 142.267 160.37 141.547V138.149C159.991 137.452 159.41 137.104 158.626 137.104C158.007 137.104 157.524 137.343 157.177 137.821C156.831 138.3 156.658 139.008 156.658 139.947Z" fill="white"/>
</g>
</svg>
