<svg width="24" height="24" viewBox="0 0 24 24" fill="none" xmlns="http://www.w3.org/2000/svg">
<path d="M22.2449 6.03402C21.7579 5.54719 21.1107 5.27911 20.4223 5.27911H20.4218L12.0987 5.27893C12.0981 5.27893 12.0976 5.27893 12.097 5.27893C11.8645 5.27893 11.6512 5.167 11.526 4.97931L10.2064 3H3.57812C2.15655 3 1 4.15655 1 5.57812V19.4172C1 20.8388 2.15655 21.9954 3.57812 21.9954H20.4219C21.8435 21.9954 23 20.8388 23 19.4172V7.85706C23 7.1684 22.7318 6.52095 22.2449 6.03402ZM2.71875 5.57812C2.71875 5.10427 3.10427 4.71875 3.57812 4.71875H9.28665L10.096 5.93275C10.1452 6.00661 10.1982 6.07716 10.2545 6.14424C10.1994 6.20977 10.1475 6.2786 10.0994 6.35023L9.27054 7.55632L3.5786 7.55658H3.57808C3.28078 7.55658 2.99109 7.60659 2.71875 7.70259V5.57812ZM21.2812 19.4172C21.2812 19.8911 20.8957 20.2766 20.4219 20.2766H3.57812C3.10427 20.2766 2.71875 19.8911 2.71875 19.4172V10.3063V10.1347C2.71875 9.90512 2.80817 9.68933 2.9705 9.52695C3.1328 9.3647 3.34859 9.27533 3.5783 9.27533H3.57847L10.1748 9.27498L11.5191 7.31909L11.5259 7.30908C11.6481 7.12573 11.8784 6.99768 12.0859 6.99768C12.0909 6.99768 12.0959 6.99764 12.1008 6.99768L20.422 6.99786C20.6515 6.99781 20.8672 7.08714 21.0296 7.24944C21.1919 7.41173 21.2812 7.62752 21.2812 7.85706V19.4172Z" fill="white"/>
</svg>
