<svg width="31" height="34" viewBox="0 0 31 34" fill="none" xmlns="http://www.w3.org/2000/svg">
<path d="M30.4321 21.7103L19.3937 34L12.2165 27.168L14.0455 25.2466L19.2449 30.196L28.4586 19.9374L30.4321 21.7103ZM12.7122 31.302L15.499 33.9548H3.97919C1.78508 33.9548 0 32.1699 0 29.9758V3.97919C0 1.78488 1.78508 0 3.97919 0H17.4918L26.9178 9.4741V17.8197L24.2723 20.7268V11.3476H19.5564C17.3625 11.3476 15.5772 9.56271 15.5772 7.36881V2.65251H3.97919C3.24768 2.65251 2.65272 3.24768 2.65272 3.97919V29.9758C2.65272 30.7071 3.24768 31.302 3.97919 31.302H12.7122ZM19.5564 8.69507H22.4065L18.2302 4.50131V7.36881C18.2302 8.0999 18.8251 8.69507 19.5564 8.69507ZM5.30565 22.4818H15.7173V19.8289H5.30565V22.4818ZM21.6198 14.5239H5.30565V17.1764H21.6198V14.5239Z" fill="white"/>
</svg>
