<svg width="34" height="34" viewBox="0 0 34 34" fill="none" xmlns="http://www.w3.org/2000/svg">
<path fill-rule="evenodd" clip-rule="evenodd" d="M25.0352 8.63281C27.4152 8.63281 29.3516 6.69647 29.3516 4.31641C29.3516 1.93634 27.4152 0 25.0352 0C22.6551 0 20.7188 1.93634 20.7188 4.31641C20.7188 6.69647 22.6551 8.63281 25.0352 8.63281ZM25.0352 1.99219C26.3167 1.99219 27.3594 3.03483 27.3594 4.31641C27.3594 5.59798 26.3167 6.64062 25.0352 6.64062C23.7536 6.64062 22.7109 5.59798 22.7109 4.31641C22.7109 3.03483 23.7536 1.99219 25.0352 1.99219ZM13.0273 34C11.3705 34 10.0273 32.6569 10.0273 31V13.625C10.0273 11.9681 11.3705 10.625 13.0273 10.625H15.0625C16.7194 10.625 18.0625 11.9681 18.0625 13.625V31C18.0625 32.6569 16.7194 34 15.0625 34H13.0273ZM13.0195 12.6172C12.4672 12.6172 12.0195 13.0649 12.0195 13.6172V31.0078C12.0195 31.5601 12.4672 32.0078 13.0195 32.0078H15.0703C15.6226 32.0078 16.0703 31.5601 16.0703 31.0078V13.6172C16.0703 13.0649 15.6226 12.6172 15.0703 12.6172H13.0195ZM3 34C1.34315 34 0 32.6569 0 31V24.25C0 22.5931 1.34315 21.25 3 21.25H5.03516C6.69201 21.25 8.03516 22.5931 8.03516 24.25V31C8.03516 32.6569 6.69201 34 5.03516 34H3ZM2.99219 23.2422C2.4399 23.2422 1.99219 23.6899 1.99219 24.2422V31.0078C1.99219 31.5601 2.4399 32.0078 2.99219 32.0078H5.04297C5.59525 32.0078 6.04297 31.5601 6.04297 31.0078V24.2422C6.04297 23.6899 5.59525 23.2422 5.04297 23.2422H2.99219ZM23.0547 10.625H29.0195C31.7658 10.625 34 12.8592 34 15.6055V21.582C34 23.2298 32.6595 24.5703 31.0117 24.5703C30.6626 24.5703 30.3273 24.5101 30.0156 24.3996V31C30.0156 32.6569 28.6725 34 27.0156 34H23.0547C21.3978 34 20.0547 32.6569 20.0547 31V13.625C20.0547 11.9681 21.3978 10.625 23.0547 10.625ZM31.0117 22.5781C31.561 22.5781 32.0078 22.1313 32.0078 21.582V15.6055C32.0078 13.9577 30.6673 12.6172 29.0195 12.6172H27.0312C26.479 12.6172 26.0312 13.0649 26.0312 13.6172V17.5977C26.0312 18.1478 25.5853 18.5938 25.0352 18.5938C24.485 18.5938 24.0391 18.1478 24.0391 17.5977V13.6133C24.0391 13.0632 23.5931 12.6172 23.043 12.6172C22.4928 12.6172 22.0469 13.0632 22.0469 13.6133V31.0117C22.0469 31.5618 22.4928 32.0078 23.043 32.0078C23.5931 32.0078 24.0391 31.5618 24.0391 31.0117V22.5781C24.0391 22.028 24.485 21.582 25.0352 21.582C25.5853 21.582 26.0312 22.028 26.0312 22.5781V31.0117C26.0312 31.5618 26.4772 32.0078 27.0273 32.0078C27.5775 32.0078 28.0234 31.5618 28.0234 31.0117V16.2031C28.0234 15.653 28.4694 15.207 29.0195 15.207C29.5697 15.207 30.0156 15.653 30.0156 16.2031V21.582C30.0156 22.1313 30.4625 22.5781 31.0117 22.5781Z" fill="white"/>
</svg>
