<svg width="26" height="34" viewBox="0 0 26 34" fill="none" xmlns="http://www.w3.org/2000/svg">
<path fill-rule="evenodd" clip-rule="evenodd" d="M0.996092 0H24.4684C25.0186 0 25.4645 0.445983 25.4646 0.996092V30.0698C25.4646 30.3339 25.3596 30.5873 25.1728 30.7741L22.2387 33.7082C22.0442 33.9028 21.7892 34 21.5343 34C21.2794 34 21.0245 33.9027 20.83 33.7082L18.6003 31.4785L16.3706 33.7082C16.1838 33.895 15.9305 34 15.6663 34C15.4021 34 15.1488 33.895 14.962 33.7082L12.7322 31.4785L10.5027 33.7082C10.3159 33.8951 10.0625 34 9.79829 34C9.53406 34 9.28072 33.895 9.09392 33.7082L6.86427 31.4785L4.63455 33.7082C4.24554 34.0972 3.61482 34.0972 3.22588 33.7082L0.291789 30.7741C0.104988 30.5873 0 30.3339 0 30.0698V0.996092C0 0.445983 0.445983 0 0.996092 0ZM19.3046 29.3655L21.5343 31.5952L23.4723 29.6572H23.4722V1.99218H1.99205V29.6572L3.93005 31.5952L6.15977 29.3655C6.34657 29.1786 6.59991 29.0737 6.86407 29.0737C7.1283 29.0737 7.38164 29.1786 7.56844 29.3655L9.79809 31.5952L12.0278 29.3655C12.4168 28.9764 13.0475 28.9764 13.4365 29.3655L15.6662 31.5952L17.8959 29.3655C18.0827 29.1786 18.336 29.0737 18.6002 29.0737C18.8644 29.0737 19.1178 29.1786 19.3046 29.3655ZM13.4436 11.7362H12.0209C11.3936 11.7362 10.8832 11.2258 10.8832 10.5984C10.8832 9.97101 11.3936 9.46062 12.0209 9.46062H14.866C15.4161 9.46062 15.8621 9.01463 15.8621 8.46453C15.8621 7.91442 15.4161 7.46843 14.866 7.46843H13.7282V6.33076C13.7282 5.78066 13.2822 5.33467 12.7321 5.33467C12.182 5.33467 11.736 5.78066 11.736 6.33076V7.48205C10.1433 7.62648 8.89099 8.96868 8.89099 10.5984C8.89099 12.3243 10.2951 13.7284 12.0209 13.7284H13.4436C14.0709 13.7284 14.5813 14.2388 14.5813 14.8661C14.5813 15.4935 14.071 16.0039 13.4436 16.0039H10.5983C10.0482 16.0039 9.6022 16.4499 9.6022 17C9.6022 17.5501 10.0482 17.9961 10.5983 17.9961H11.736V19.1338C11.736 19.6839 12.182 20.1299 12.7321 20.1299C13.2822 20.1299 13.7282 19.6839 13.7282 19.1338V17.9825C15.3211 17.8381 16.5735 16.4959 16.5735 14.8661C16.5735 13.1402 15.1695 11.7362 13.4436 11.7362ZM18.0668 23.4724H7.39764C6.84753 23.4724 6.40155 23.9184 6.40155 24.4685C6.40155 25.0186 6.84753 25.4646 7.39764 25.4646H18.0668C18.617 25.4646 19.0629 25.0186 19.0629 24.4685C19.0629 23.9184 18.617 23.4724 18.0668 23.4724Z" fill="white"/>
</svg>
