<svg width="34" height="34" viewBox="0 0 34 34" fill="none" xmlns="http://www.w3.org/2000/svg">
<path d="M33.9998 11.4219V16.7344C33.9998 17.4679 33.4052 18.0625 32.6716 18.0625H31.7983L31.2387 23.0422C31.1625 23.7208 30.5876 24.2219 29.9205 24.2222C29.8709 24.2222 29.8211 24.2193 29.7705 24.2136C29.0416 24.1319 28.5171 23.4743 28.5991 22.7457L29.2912 16.5862C29.3666 15.9144 29.9347 15.4062 30.611 15.4062H31.3438V12.75H2.65625V15.4062H25.3008C26.0344 15.4062 26.6289 16.001 26.6289 16.7344C26.6289 17.4679 26.0344 18.0625 25.3008 18.0625H4.89902L6.21055 29.0037C6.37034 30.3378 7.50417 31.3437 8.84786 31.3437H25.2585C26.6121 31.3437 27.7469 30.3292 27.8982 28.984C27.9799 28.2551 28.6372 27.7308 29.3661 27.8125C30.095 27.8945 30.6195 28.5518 30.5378 29.2807C30.2354 31.971 27.9659 34 25.2585 34H8.84786C6.16048 34 3.89281 31.9878 3.57297 29.3197L2.22383 18.0625H1.32813C0.594544 18.0625 0 17.4679 0 16.7344V11.4219C0 10.6883 0.594544 10.0937 1.32813 10.0937H6.03882L13.0569 0.541852C13.4911 -0.0490608 14.3222 -0.176426 14.9134 0.258068C15.5046 0.692303 15.6317 1.52342 15.1974 2.11459L9.33502 10.0937H24.714L18.8514 2.11459C18.4171 1.52342 18.5442 0.692303 19.1354 0.258068C19.7266 -0.176426 20.5577 -0.0493203 20.9922 0.541852L28.01 10.0937H32.6716C33.4052 10.0937 33.9998 10.6885 33.9998 11.4219ZM15.6719 22.0469V27.3594C15.6719 28.093 16.2664 28.6875 17 28.6875C17.7333 28.6875 18.3281 28.093 18.3281 27.3594V22.0469C18.3281 21.3133 17.7333 20.7187 17 20.7187C16.2664 20.7187 15.6719 21.3133 15.6719 22.0469ZM20.9844 22.0469V27.3594C20.9844 28.093 21.5789 28.6875 22.3125 28.6875C23.0458 28.6875 23.6406 28.093 23.6406 27.3594V22.0469C23.6406 21.3133 23.0458 20.7187 22.3125 20.7187C21.5789 20.7187 20.9844 21.3133 20.9844 22.0469ZM10.3594 22.0469V27.3594C10.3594 28.093 10.9539 28.6875 11.6875 28.6875C12.4208 28.6875 13.0156 28.093 13.0156 27.3594V22.0469C13.0156 21.3133 12.4208 20.7187 11.6875 20.7187C10.9539 20.7187 10.3594 21.3133 10.3594 22.0469Z" fill="white"/>
</svg>
