<svg width="35" height="35" viewBox="0 0 35 35" fill="none" xmlns="http://www.w3.org/2000/svg">
<path fill-rule="evenodd" clip-rule="evenodd" d="M27 32.3935V1.60651C27 0.720367 27.7265 0 28.6187 0H32.7793C33.6716 0 34.398 0.721008 34.398 1.60651V32.3935C34.398 33.279 33.6716 34 32.7793 34H28.6187C27.7265 34 27 33.279 27 32.3935ZM32.4556 1.9278H28.9424V32.0722H32.4556V1.9278ZM9 10.3187C9 9.42648 9.72647 8.70001 10.6187 8.70001H14.7793C15.6716 8.70001 16.398 9.42648 16.398 10.3187V32.4842C16.398 33.3764 15.6716 34.1028 14.7793 34.1028H10.6187C9.72647 34.1028 9 33.3764 9 32.4842V10.3187ZM10.9424 32.1604H14.4556V10.6424H10.9424V32.1604ZM0 32.504V20.0687C0 19.1758 0.726471 18.45 1.61868 18.45H5.77998C6.6722 18.45 7.39867 19.1765 7.39867 20.0687V32.504C7.39867 33.3962 6.6722 34.1226 5.77998 34.1226H1.61868C0.726471 34.1226 0 33.3962 0 32.504ZM5.45624 20.3924H1.94241V32.1802H5.45624V20.3924ZM19.6187 14C18.7265 14 18 14.7265 18 15.6187V32.482C18 33.3742 18.7265 34.1007 19.6187 34.1007H23.7793C24.6716 34.1007 25.398 33.3742 25.398 32.482V15.6187C25.398 14.7265 24.6716 14 23.7793 14H19.6187ZM23.4556 32.1576H19.9424V15.9424H23.4556V32.1576Z" fill="white"/>
</svg>
