<svg width="34" height="34" viewBox="0 0 34 34" fill="none" xmlns="http://www.w3.org/2000/svg">
<path d="M5.16568 11.3477H10.3752V14.0021H13.0296V11.3477H20.9929V14.0021H23.6474V6.63622C23.6474 2.97687 20.6702 0 17.0112 0C13.3521 0 10.3752 2.97687 10.3752 6.63622V8.69325H2.84328L0.505569 26.1353L3.60902 22.9626L5.16568 11.3477ZM13.0294 6.63622C13.0294 4.44066 14.8156 2.65443 17.0112 2.65443C19.2067 2.65443 20.9929 4.44066 20.9929 6.63622V8.69325H13.0294V6.63622ZM33.9761 29.5658C34.0978 30.6885 33.7352 31.8143 32.9811 32.6545C32.227 33.4949 31.1469 33.9769 30.0177 33.9769H4.00461C3.99475 33.9769 3.98515 33.9761 3.97556 33.9761L6.57111 31.3225H30.0177C30.3995 31.3225 30.7502 31.1658 31.0055 30.8818C31.2574 30.6008 31.3754 30.2405 31.3386 29.866L29.915 19.2448H32.5933L33.9743 29.5492L33.9761 29.5658ZM34 8.69325V16.5904H31.3456V13.2911L17.4594 27.177L12.1313 21.849L1.90425 32.3798L0 30.5305L12.1036 18.0672L17.4594 23.4232L29.535 11.3477H26.0367V8.69325H34Z" fill="white"/>
</svg>
