<svg width="24" height="24" viewBox="0 0 24 24" fill="none" xmlns="http://www.w3.org/2000/svg">
<path d="M14 1C12.6644 1 11.4089 1.52007 10.4646 2.4644C9.52019 3.40879 9.00012 4.66439 9.00005 5.99992V15.0002C9.00005 16.6544 10.3458 18.0001 12.0001 18.0001C13.6543 18.0001 15 16.6542 15 15V9.80657C15 9.25431 14.5523 8.80658 14 8.80658C13.4478 8.80658 13 9.25431 13 9.80657V15C13 15.5515 12.5514 16.0001 12.0001 16.0002C11.4487 16.0002 11 15.5516 11 15.0002V5.99992C11 5.19859 11.3122 4.44519 11.8788 3.87859C12.4454 3.31193 13.1987 2.99993 14 2.99993C15.6542 2.99993 17 4.34566 17.0001 5.99978V15.9999C17 18.7569 14.757 20.9999 12.0001 20.9999C10.6646 20.9999 9.40892 20.4799 8.46459 19.5355C7.52019 18.5912 7.00013 17.3356 7.00013 16L6.99999 5.99992C6.99999 5.44759 6.55226 4.99992 6 4.99992C5.44773 4.99992 5 5.44765 5 5.99992L5.00013 16C5.00007 17.8697 5.7282 19.6276 7.05033 20.9498C8.37246 22.2719 10.1303 23.0001 12.0001 23C15.8598 23 19 19.8598 19.0001 16V5.99985C19 3.24293 16.757 1 14 1Z" fill="#96562D"/>
</svg>
