<svg width="20" height="20" viewBox="0 0 20 20" fill="none" xmlns="http://www.w3.org/2000/svg">
<path fill-rule="evenodd" clip-rule="evenodd" d="M0 10C0 4.486 4.486 0 10 0C15.514 0 20 4.486 20 10C20 15.514 15.514 20 10 20C4.486 20 0 15.514 0 10ZM2.14286 10C2.14286 14.3324 5.66757 17.8571 10 17.8571C14.3324 17.8571 17.8571 14.3324 17.8571 10C17.8571 5.66757 14.3324 2.14286 10 2.14286C5.66757 2.14286 2.14286 5.66757 2.14286 10ZM8.92849 5.363C8.92849 4.77129 9.4082 4.29157 9.99992 4.29157C10.5916 4.29157 11.0713 4.77129 11.0713 5.363V10.0046C11.0713 10.5963 10.5916 11.076 9.99992 11.076H5.35842C4.7667 11.076 4.28699 10.5963 4.28699 10.0046C4.28699 9.41286 4.7667 8.93314 5.35842 8.93314H8.92849V5.363Z" fill="white"/>
</svg>
