<svg width="16" height="16" viewBox="0 0 16 16" fill="none" xmlns="http://www.w3.org/2000/svg">
<path d="M7.41479 12.4472C7.49164 12.5241 7.58287 12.5851 7.68328 12.6266C7.78369 12.6682 7.89131 12.6897 7.99999 12.6897C8.10868 12.6897 8.2163 12.6682 8.31671 12.6266C8.41712 12.5851 8.50835 12.5241 8.5852 12.4472L11.7062 9.32624C11.8614 9.17104 11.9486 8.96054 11.9486 8.74105C11.9486 8.52156 11.8614 8.31106 11.7062 8.15586C11.551 8.00066 11.3405 7.91347 11.121 7.91347C10.9015 7.91347 10.691 8.00066 10.5358 8.15586L8.82758 9.8641V0.827586C8.82758 0.608097 8.74039 0.397597 8.58519 0.242394C8.42998 0.0871919 8.21948 0 7.99999 0C7.7805 0 7.57 0.0871919 7.4148 0.242394C7.2596 0.397597 7.17241 0.608097 7.17241 0.827586V9.8641L5.46416 8.15586C5.30896 8.00066 5.09846 7.91347 4.87897 7.91347C4.65949 7.91347 4.44899 8.00066 4.29378 8.15586C4.13858 8.31106 4.05139 8.52156 4.05139 8.74105C4.05139 8.96054 4.13858 9.17104 4.29378 9.32624L7.41479 12.4472Z" fill="white"/>
<path d="M15.1724 7.17236C14.9529 7.17236 14.7424 7.25956 14.5872 7.41476C14.432 7.56996 14.3448 7.78046 14.3448 7.99995V14.3448H1.65517V7.99995C1.65517 7.78046 1.56798 7.56996 1.41278 7.41476C1.25758 7.25956 1.04708 7.17236 0.827586 7.17236C0.608097 7.17236 0.397597 7.25956 0.242394 7.41476C0.0871919 7.56996 0 7.78046 0 7.99995V14.6206C0 14.9865 0.14532 15.3373 0.403991 15.596C0.662661 15.8546 1.01349 15.9999 1.37931 15.9999H14.6207C14.9865 15.9999 15.3373 15.8546 15.596 15.596C15.8547 15.3373 16 14.9865 16 14.6206V7.99995C16 7.78046 15.9128 7.56996 15.7576 7.41476C15.6024 7.25956 15.3919 7.17236 15.1724 7.17236Z" fill="white"/>
</svg>
