<svg width="8" height="16" viewBox="0 0 8 16" fill="none" xmlns="http://www.w3.org/2000/svg">
<path d="M2.75021 1.60078C2.75021 0.716702 3.46691 0 4.35099 0C5.23507 0 5.95177 0.716702 5.95177 1.60078C5.95177 2.48486 5.23507 3.20156 4.35099 3.20156C3.46691 3.20156 2.75021 2.48486 2.75021 1.60078ZM2.17188 7.73587C1.59187 8.0189 0.892537 7.77787 0.609912 7.19766L0.510972 6.99454C0.234989 6.42797 0.482309 5.71036 1.0487 5.43401C2.09011 4.9258 3.31714 5.03663 4.25091 5.72324C5.18435 6.40972 5.65575 7.54768 5.48107 8.69308C5.47493 8.73309 5.46692 8.77292 5.45706 8.81224L4.4405 12.8556C4.4195 13.1115 4.56754 13.2625 4.66128 13.3314C4.76047 13.4043 4.96524 13.508 5.2229 13.3821C5.70346 13.1477 6.28309 13.3472 6.51756 13.8277L6.79161 14.3894C7.02607 14.8699 6.82659 15.4495 6.34607 15.684C5.91226 15.8957 5.44618 16 4.98259 16C4.33319 16 3.68865 15.7955 3.14387 15.3948C2.21036 14.7083 1.73902 13.5704 1.91377 12.425C1.91991 12.3849 1.92792 12.3452 1.93778 12.3058L2.95434 8.26246C2.97534 8.0066 2.82723 7.85561 2.73349 7.78665C2.63437 7.71378 2.42947 7.61018 2.17188 7.73587Z" fill="white"/>
</svg>
