<svg width="22" height="22" viewBox="0 0 22 22" fill="none" xmlns="http://www.w3.org/2000/svg">
<path d="M6.4558 16.156L3.70569 14.9872C3.35917 14.8387 2.95353 15.0023 2.80503 15.3516C2.65652 15.7009 2.81878 16.1051 3.16942 16.2523L5.91953 17.4211C6.00616 17.4582 6.09829 17.4761 6.18766 17.4761C6.45442 17.4761 6.70881 17.3193 6.82019 17.0567C6.9687 16.7074 6.80644 16.3031 6.4558 16.156Z" fill="white"/>
<path d="M21.9913 4.78017C21.9872 4.71004 21.983 4.63991 21.9569 4.56979C21.9418 4.52991 21.9143 4.50241 21.8923 4.46666C21.8771 4.44191 21.8661 4.41991 21.8496 4.39791C21.7726 4.29753 21.6778 4.22052 21.5636 4.17652C21.5595 4.17515 21.5581 4.17102 21.554 4.16965L10.5536 0.0458521C10.3872 -0.0187755 10.2043 -0.0146504 10.042 0.0554775L0.416642 4.17927C0.407017 4.1834 0.402892 4.1944 0.393266 4.19852C0.298387 4.2439 0.218634 4.31403 0.152631 4.40066C0.13338 4.42541 0.11688 4.44741 0.100379 4.47491C0.0866285 4.49828 0.0660027 4.51478 0.0550022 4.54091C0.0178757 4.62891 0 4.71967 0 4.81042V4.8118V17.1873C0 17.4623 0.163632 17.7112 0.416642 17.8198L10.042 21.945H10.0434C10.1273 21.9807 10.218 22 10.3129 22C10.3954 22 10.4766 21.9849 10.5549 21.956L10.5797 21.9464C10.5797 21.9464 10.5797 21.9464 10.5811 21.9464L21.5554 17.8308C21.8235 17.7305 22.0009 17.4733 22.0009 17.1873V4.8118C22.0009 4.79942 21.9913 4.79117 21.9913 4.78017ZM9.62539 20.2688L1.37506 16.7335V5.85542L9.62539 9.39069V20.2688ZM10.3294 8.19581L2.43385 4.8118L10.3294 1.42916L19.3553 4.8118L17.2033 5.61896L13.3449 3.89051C13.1497 3.80251 12.9269 3.81213 12.7413 3.91389L10.0448 5.05931C9.7904 5.16656 9.62539 5.41957 9.62539 5.69596C9.62539 5.97372 9.79315 6.22536 10.0517 6.33123L12.5529 7.3639L10.3294 8.19581ZM15.1256 7.8658L16.5007 7.35015V10.7012L15.1256 11.2168V7.8658ZM14.4408 6.65437L12.0895 5.68496L13.063 5.27107L15.3731 6.30511L14.4408 6.65437ZM20.6258 16.7102L11.0005 20.3197V9.41273L13.7506 8.38144V12.2096C13.7506 12.4351 13.8619 12.6455 14.0462 12.7747C14.1631 12.8559 14.2992 12.8971 14.4381 12.8971C14.5192 12.8971 14.6017 12.882 14.6801 12.8531L17.4302 11.8218C17.6983 11.7201 17.8757 11.4643 17.8757 11.1783V6.8345L20.6258 5.80321V16.7102Z" fill="white"/>
</svg>
