<svg width="19" height="16" viewBox="0 0 19 16" fill="none" xmlns="http://www.w3.org/2000/svg">
<path d="M17.538 0H0.751117C0.336286 0 0 0.336286 0 0.751117V6.85544C0 7.27027 0.336286 7.60656 0.751117 7.60656H3.43368V15.2489C3.43368 15.6637 3.76996 16 4.18479 16H14.1043C14.5191 16 14.8554 15.6637 14.8554 15.2489V7.60656H17.538C17.9528 7.60656 18.2891 7.27027 18.2891 6.85544V0.751117C18.2891 0.336286 17.9528 0 17.538 0ZM13.3532 14.4977H4.93591V4.55438H13.3532V14.4977ZM16.7868 6.10433H14.8554V3.8033C14.8554 3.38847 14.5191 3.05218 14.1043 3.05218H4.18479C3.76996 3.05218 3.43368 3.38847 3.43368 3.8033V6.10433H1.50223V1.50223H16.7868V6.10433Z" fill="white"/>
<path d="M6.85549 7.22514H9.52614C9.94097 7.22514 10.2773 6.88885 10.2773 6.47402C10.2773 6.05919 9.94097 5.7229 9.52614 5.7229H6.85549C6.44066 5.7229 6.10437 6.05919 6.10437 6.47402C6.10437 6.88885 6.44062 7.22514 6.85549 7.22514Z" fill="white"/>
<path d="M10.2892 11.064H6.85549C6.44066 11.064 6.10437 11.4003 6.10437 11.8151C6.10437 12.2299 6.44066 12.5662 6.85549 12.5662H10.2892C10.704 12.5662 11.0403 12.2299 11.0403 11.8151C11.0403 11.4003 10.704 11.064 10.2892 11.064Z" fill="white"/>
<path d="M11.4337 8.39355H6.85549C6.44066 8.39355 6.10437 8.72984 6.10437 9.14467C6.10437 9.55949 6.44066 9.89578 6.85549 9.89578H11.4337C11.8486 9.89578 12.1849 9.55949 12.1849 9.14467C12.1849 8.72984 11.8485 8.39355 11.4337 8.39355Z" fill="white"/>
</svg>
