<svg width="197" height="45" viewBox="0 0 197 45" fill="none" xmlns="http://www.w3.org/2000/svg">
<path d="M59.4897 15.4155C59.8695 15.7953 60.0594 16.2528 60.0594 16.788C60.0594 17.3231 59.8695 17.7806 59.4897 18.1604C59.1099 18.5402 58.6524 18.7301 58.1172 18.7301C57.5821 18.7301 57.1246 18.5402 56.7448 18.1604C55.7263 17.1505 54.5049 16.6455 53.0807 16.6455C51.6478 16.6455 50.4264 17.1505 49.4165 18.1604C48.4066 19.1703 47.9017 20.3917 47.9017 21.8245C47.9017 23.2488 48.4066 24.4658 49.4165 25.4757C50.4264 26.4856 51.6478 26.9949 53.0807 27.0035C54.5135 26.9949 55.7349 26.49 56.7448 25.4887C57.1246 25.1089 57.5821 24.919 58.1172 24.919C58.6524 24.919 59.1099 25.1089 59.4897 25.4887C59.8695 25.8685 60.0594 26.326 60.0594 26.8611C60.0594 27.3963 59.8695 27.8538 59.4897 28.2336C57.7202 30.003 55.5838 30.8878 53.0807 30.8878C50.5775 30.8878 48.4411 30.003 46.6716 28.2336C44.9021 26.4641 44.0174 24.3277 44.0174 21.8245C44.0174 19.3213 44.9021 17.185 46.6716 15.4155C48.4411 13.646 50.5775 12.7613 53.0807 12.7613C55.5838 12.7613 57.7202 13.646 59.4897 15.4155Z" fill="#006498"/>
<path d="M76.3085 13.331C76.6883 12.9512 77.1458 12.7613 77.6809 12.7613C78.2161 12.7613 78.6736 12.9512 79.0534 13.331C79.4332 13.7108 79.6231 14.1682 79.6231 14.7034C79.6231 15.2386 79.4332 15.696 79.0534 16.0758L72.5019 22.6273V28.9457C72.5019 29.4808 72.312 29.9383 71.9322 30.3181C71.5524 30.6979 71.095 30.8878 70.5598 30.8878C70.0246 30.8878 69.5672 30.6979 69.1874 30.3181C68.8076 29.9383 68.6177 29.4808 68.6177 28.9457V22.6273L62.0662 16.0758C61.6864 15.696 61.4965 15.2386 61.4965 14.7034C61.4965 14.1682 61.6864 13.7108 62.0662 13.331C62.446 12.9512 62.9035 12.7613 63.4387 12.7613C63.9738 12.7613 64.4313 12.9512 64.8111 13.331L70.5598 19.0797L76.3085 13.331Z" fill="#006498"/>
<path d="M82.8599 30.8878C82.3248 30.8878 81.8673 30.6979 81.4875 30.3181C81.1077 29.9383 80.9178 29.4808 80.9178 28.9457V21.8245C80.9178 21.2894 81.1077 20.8319 81.4875 20.4521C81.8673 20.0723 82.3248 19.8824 82.8599 19.8824C83.3951 19.8824 83.8526 20.0723 84.2324 20.4521C84.6122 20.8319 84.8021 21.2894 84.8021 21.8245V27.0035H93.5416C93.9905 27.0035 94.3703 26.8482 94.681 26.5374C95.0004 26.2181 95.1601 25.8339 95.1601 25.3851C95.1601 24.9363 95.0004 24.5565 94.681 24.2457C94.3703 23.9263 93.9905 23.7667 93.5416 23.7667H89.9811C89.4459 23.7667 88.9884 23.5768 88.6086 23.197C88.2288 22.8172 88.0389 22.3597 88.0389 21.8245C88.0389 21.2894 88.2288 20.8319 88.6086 20.4521C88.9884 20.0723 89.4459 19.8824 89.9811 19.8824H93.5416C93.9905 19.8824 94.3703 19.727 94.681 19.4163C95.0004 19.0969 95.1601 18.7128 95.1601 18.264C95.1601 17.8151 95.0004 17.4353 94.681 17.1246C94.3703 16.8052 93.9905 16.6455 93.5416 16.6455H82.8599C82.3248 16.6455 81.8673 16.4556 81.4875 16.0758C81.1077 15.696 80.9178 15.2386 80.9178 14.7034C80.9178 14.1682 81.1077 13.7108 81.4875 13.331C81.8673 12.9512 82.3248 12.7613 82.8599 12.7613H93.5416C95.0608 12.7613 96.3556 13.3008 97.4259 14.3797C98.5049 15.45 99.0443 16.7448 99.0443 18.264C99.0443 19.6278 98.6084 20.8146 97.7366 21.8245C98.6084 22.8344 99.0443 24.0213 99.0443 25.3851C99.0443 26.9043 98.5049 28.2033 97.4259 29.2823C96.3556 30.3526 95.0608 30.8878 93.5416 30.8878H82.8599Z" fill="#006498"/>
<path d="M109.402 23.7667C108.867 23.7667 108.41 23.5768 108.03 23.197C107.65 22.8172 107.46 22.3597 107.46 21.8245C107.46 21.2894 107.65 20.8319 108.03 20.4521C108.41 20.0723 108.867 19.8824 109.402 19.8824H116.523C117.059 19.8824 117.516 20.0723 117.896 20.4521C118.276 20.8319 118.466 21.2894 118.466 21.8245C118.466 22.3597 118.276 22.8172 117.896 23.197C117.516 23.5768 117.059 23.7667 116.523 23.7667H109.402ZM116.523 12.7613C117.059 12.7613 117.516 12.9512 117.896 13.331C118.276 13.7108 118.466 14.1682 118.466 14.7034C118.466 15.2386 118.276 15.696 117.896 16.0758C117.516 16.4556 117.059 16.6455 116.523 16.6455H109.402C107.969 16.6455 106.748 17.1505 105.738 18.1604C104.728 19.1703 104.223 20.3917 104.223 21.8245C104.223 23.2574 104.728 24.4788 105.738 25.4887C106.748 26.4986 107.969 27.0035 109.402 27.0035H116.523C117.059 27.0035 117.516 27.1934 117.896 27.5732C118.276 27.953 118.466 28.4105 118.466 28.9457C118.466 29.4808 118.276 29.9383 117.896 30.3181C117.516 30.6979 117.059 30.8878 116.523 30.8878H109.402C106.899 30.8878 104.763 30.003 102.993 28.2336C101.224 26.4641 100.339 24.3277 100.339 21.8245C100.339 19.3213 101.224 17.185 102.993 15.4155C104.763 13.646 106.899 12.7613 109.402 12.7613H116.523Z" fill="#006498"/>
<path d="M123.645 28.9457C123.645 29.4808 123.455 29.9383 123.075 30.3181C122.695 30.6979 122.238 30.8878 121.702 30.8878C121.167 30.8878 120.71 30.6979 120.33 30.3181C119.95 29.9383 119.76 29.4808 119.76 28.9457V14.7034C119.76 14.1682 119.95 13.7108 120.33 13.331C120.71 12.9512 121.167 12.7613 121.702 12.7613H132.384C133.903 12.7613 135.198 13.3008 136.268 14.3797C137.347 15.45 137.887 16.7448 137.887 18.264C137.887 19.7831 137.352 21.0779 136.281 22.1482C135.453 22.9769 134.499 23.4861 133.42 23.676L137.317 27.5732C137.697 27.953 137.887 28.4105 137.887 28.9457C137.887 29.4808 137.697 29.9383 137.317 30.3181C136.937 30.6979 136.48 30.8878 135.945 30.8878C135.41 30.8878 134.952 30.6979 134.572 30.3181L127.451 23.197C127.071 22.8172 126.881 22.3597 126.881 21.8245C126.881 21.2894 127.071 20.8319 127.451 20.4521C127.831 20.0723 128.288 19.8824 128.824 19.8824H132.384C132.833 19.8824 133.213 19.727 133.524 19.4163C133.843 19.0969 134.003 18.7128 134.003 18.264C134.003 17.8151 133.843 17.4353 133.524 17.1246C133.213 16.8052 132.833 16.6455 132.384 16.6455H123.645V28.9457Z" fill="#006498"/>
<path d="M143.066 28.9457C143.066 29.4808 142.876 29.9383 142.496 30.3181C142.116 30.6979 141.659 30.8878 141.124 30.8878C140.589 30.8878 140.131 30.6979 139.751 30.3181C139.372 29.9383 139.182 29.4808 139.182 28.9457V14.7034C139.182 14.1682 139.372 13.7108 139.751 13.331C140.131 12.9512 140.589 12.7613 141.124 12.7613C141.659 12.7613 142.116 12.9512 142.496 13.331L153.424 24.2587V14.7034C153.424 14.1682 153.614 13.7108 153.994 13.331C154.373 12.9512 154.831 12.7613 155.366 12.7613C155.901 12.7613 156.359 12.9512 156.738 13.331C157.118 13.7108 157.308 14.1682 157.308 14.7034V28.9457C157.308 29.4808 157.118 29.9383 156.738 30.3181C156.359 30.6979 155.901 30.8878 155.366 30.8878C154.831 30.8878 154.373 30.6979 153.994 30.3181L143.066 19.3904V28.9457Z" fill="#006498"/>
<path d="M167.666 23.7667C167.131 23.7667 166.674 23.5768 166.294 23.197C165.914 22.8172 165.724 22.3597 165.724 21.8245C165.724 21.2894 165.914 20.8319 166.294 20.4521C166.674 20.0723 167.131 19.8824 167.666 19.8824H174.787C175.322 19.8824 175.78 20.0723 176.16 20.4521C176.54 20.8319 176.729 21.2894 176.729 21.8245C176.729 22.3597 176.54 22.8172 176.16 23.197C175.78 23.5768 175.322 23.7667 174.787 23.7667H167.666ZM174.787 12.7613C175.322 12.7613 175.78 12.9512 176.16 13.331C176.54 13.7108 176.729 14.1682 176.729 14.7034C176.729 15.2386 176.54 15.696 176.16 16.0758C175.78 16.4556 175.322 16.6455 174.787 16.6455H167.666C166.233 16.6455 165.012 17.1505 164.002 18.1604C162.992 19.1703 162.487 20.3917 162.487 21.8245C162.487 23.2574 162.992 24.4788 164.002 25.4887C165.012 26.4986 166.233 27.0035 167.666 27.0035H174.787C175.322 27.0035 175.78 27.1934 176.16 27.5732C176.54 27.953 176.729 28.4105 176.729 28.9457C176.729 29.4808 176.54 29.9383 176.16 30.3181C175.78 30.6979 175.322 30.8878 174.787 30.8878H167.666C165.163 30.8878 163.027 30.003 161.257 28.2336C159.488 26.4641 158.603 24.3277 158.603 21.8245C158.603 19.3213 159.488 17.185 161.257 15.4155C163.027 13.646 165.163 12.7613 167.666 12.7613H174.787Z" fill="#006498"/>
<path d="M179.966 16.6455C179.431 16.6455 178.974 16.4556 178.594 16.0758C178.214 15.696 178.024 15.2386 178.024 14.7034C178.024 14.1682 178.214 13.7108 178.594 13.331C178.974 12.9512 179.431 12.7613 179.966 12.7613H194.209C194.744 12.7613 195.201 12.9512 195.581 13.331C195.961 13.7108 196.151 14.1682 196.151 14.7034C196.151 15.2386 195.961 15.696 195.581 16.0758C195.201 16.4556 194.744 16.6455 194.209 16.6455H189.03V28.9457C189.03 29.4808 188.84 29.9383 188.46 30.3181C188.08 30.6979 187.623 30.8878 187.087 30.8878C186.552 30.8878 186.095 30.6979 185.715 30.3181C185.335 29.9383 185.145 29.4808 185.145 28.9457V16.6455H179.966Z" fill="#006498"/>
<path d="M8.4375 30.9375C7.44904 29.949 7.44904 28.3464 8.4375 27.3579L16.875 18.9204L20.4546 22.5L12.017 30.9375C11.0286 31.926 9.42597 31.926 8.4375 30.9375Z" fill="url(#paint0_linear)"/>
<path d="M8.43751 14.0625C9.42597 13.074 11.0286 13.074 12.0171 14.0625L20.4546 22.5L16.875 26.0795L8.43751 17.642C7.44904 16.6536 7.44905 15.051 8.43751 14.0625Z" fill="url(#paint1_linear)"/>
<path d="M22.5 24.5454L30.9375 32.9829C31.926 33.9714 31.926 35.574 30.9375 36.5625C29.949 37.5509 28.3464 37.5509 27.358 36.5625L18.9204 28.125L22.5 24.5454Z" fill="url(#paint2_linear)"/>
<path d="M14.0625 36.5625C13.074 35.574 13.074 33.9714 14.0625 32.9829L22.5 24.5454L26.0795 28.125L17.642 36.5625C16.6536 37.5509 15.051 37.5509 14.0625 36.5625Z" fill="url(#paint3_linear)"/>
<path d="M18.9204 16.875L27.358 8.43751C28.3464 7.44905 29.949 7.44905 30.9375 8.43751C31.926 9.42598 31.926 11.0286 30.9375 12.0171L22.5 20.4546L18.9204 16.875Z" fill="url(#paint4_linear)"/>
<path d="M14.0625 8.43751C15.051 7.44904 16.6536 7.44904 17.642 8.43751L26.0795 16.875L22.5 20.4546L14.0625 12.0171C13.074 11.0286 13.074 9.42597 14.0625 8.43751Z" fill="url(#paint5_linear)"/>
<path d="M28.125 18.9205L36.5625 27.358C37.551 28.3464 37.551 29.949 36.5625 30.9375C35.574 31.926 33.9714 31.926 32.983 30.9375L24.5455 22.5L28.125 18.9205Z" fill="url(#paint6_linear)"/>
<path d="M24.5455 22.5L32.983 14.0625C33.9714 13.074 35.574 13.074 36.5625 14.0625C37.551 15.051 37.551 16.6536 36.5625 17.642L28.125 26.0795L24.5455 22.5Z" fill="url(#paint7_linear)"/>
<path d="M47.3694 37.1928C47.3269 37.1928 47.2907 37.181 47.261 37.1575C47.2355 37.13 47.2227 37.0966 47.2227 37.0573V33.2035C47.2227 33.1643 47.2355 33.1328 47.261 33.1093C47.2907 33.0818 47.3269 33.068 47.3694 33.068H47.7075C47.75 33.068 47.784 33.0818 47.8095 33.1093C47.8393 33.1328 47.8542 33.1643 47.8542 33.2035V37.0573C47.8542 37.0966 47.8393 37.13 47.8095 37.1575C47.784 37.181 47.75 37.1928 47.7075 37.1928H47.3694Z" fill="#848484"/>
<path d="M59.5298 37.1928C59.4872 37.1928 59.4511 37.181 59.4213 37.1575C59.3958 37.13 59.3831 37.0966 59.3831 37.0573V33.5925H58.1584C58.1158 33.5925 58.0797 33.5807 58.0499 33.5571C58.0244 33.5296 58.0117 33.4962 58.0117 33.4569V33.2094C58.0117 33.1702 58.0244 33.1368 58.0499 33.1093C58.0797 33.0818 58.1158 33.068 58.1584 33.068H61.2328C61.2796 33.068 61.3158 33.0818 61.3413 33.1093C61.371 33.1328 61.3859 33.1662 61.3859 33.2094V33.4569C61.3859 33.4962 61.371 33.5296 61.3413 33.5571C61.3115 33.5807 61.2754 33.5925 61.2328 33.5925H60.0145V37.0573C60.0145 37.0966 59.9997 37.13 59.9699 37.1575C59.9401 37.181 59.904 37.1928 59.8614 37.1928H59.5298Z" fill="#848484"/>
<path d="M83.8183 37.2517C83.4653 37.2517 83.1591 37.2007 82.8997 37.0985C82.6446 36.9964 82.449 36.8628 82.3129 36.6978C82.1768 36.5289 82.1046 36.3482 82.096 36.1557C82.096 36.1243 82.1088 36.0968 82.1343 36.0732C82.1641 36.0457 82.1981 36.032 82.2364 36.032H82.5617C82.6425 36.032 82.6978 36.0713 82.7275 36.1498C82.7658 36.3148 82.8742 36.4562 83.0528 36.5741C83.2357 36.6919 83.4908 36.7509 83.8183 36.7509C84.1712 36.7509 84.437 36.6939 84.6156 36.58C84.7942 36.4621 84.8835 36.2991 84.8835 36.0909C84.8835 35.9573 84.8388 35.8493 84.7495 35.7668C84.6645 35.6843 84.5369 35.6116 84.3668 35.5488C84.1967 35.4859 83.9416 35.4074 83.6014 35.3131C83.2697 35.2267 83.0061 35.1343 82.8104 35.0361C82.6148 34.9379 82.4681 34.8161 82.3703 34.6708C82.2725 34.5254 82.2236 34.3428 82.2236 34.1228C82.2236 33.9107 82.2853 33.7201 82.4086 33.5512C82.5362 33.3823 82.7169 33.2507 82.9508 33.1564C83.1847 33.0582 83.4632 33.0091 83.7864 33.0091C84.1181 33.0091 84.403 33.0641 84.6411 33.1741C84.8792 33.2802 85.06 33.4157 85.1833 33.5807C85.3066 33.7457 85.3725 33.9107 85.381 34.0756C85.381 34.1071 85.3683 34.1346 85.3427 34.1581C85.3215 34.1817 85.2896 34.1935 85.2471 34.1935H84.909C84.8197 34.1935 84.7644 34.1562 84.7432 34.0815C84.7176 33.9165 84.6177 33.781 84.4434 33.675C84.269 33.565 84.05 33.51 83.7864 33.51C83.4972 33.51 83.2697 33.561 83.1039 33.6632C82.938 33.7653 82.8551 33.9165 82.8551 34.1169C82.8551 34.2505 82.8934 34.3605 82.9699 34.4469C83.0507 34.5333 83.1719 34.6099 83.3335 34.6767C83.4951 34.7395 83.7311 34.8122 84.0415 34.8947C84.403 34.9851 84.6879 35.0793 84.8962 35.1776C85.1046 35.2718 85.2598 35.3917 85.3619 35.537C85.4639 35.6784 85.515 35.8591 85.515 36.0791C85.515 36.4445 85.3619 36.7312 85.0557 36.9394C84.7495 37.1476 84.3371 37.2517 83.8183 37.2517Z" fill="#848484"/>
<path d="M97.3987 37.2517C96.8416 37.2517 96.41 37.1182 96.1038 36.851C95.8019 36.58 95.6425 36.1734 95.6254 35.6313C95.6212 35.5134 95.6191 35.3465 95.6191 35.1304C95.6191 34.9144 95.6212 34.7494 95.6254 34.6354C95.6425 34.1051 95.8083 33.7025 96.123 33.4275C96.4377 33.1486 96.8629 33.0091 97.3987 33.0091C97.9302 33.0091 98.3533 33.1486 98.668 33.4275C98.9827 33.7025 99.1485 34.1051 99.1656 34.6354C99.1741 34.8633 99.1783 35.0283 99.1783 35.1304C99.1783 35.2286 99.1741 35.3956 99.1656 35.6313C99.1485 36.1734 98.9869 36.58 98.6808 36.851C98.3789 37.1182 97.9515 37.2517 97.3987 37.2517ZM97.3987 36.7509C97.7346 36.7509 98.0025 36.6566 98.2024 36.468C98.4023 36.2795 98.5107 35.9907 98.5277 35.6018C98.5362 35.3661 98.5405 35.209 98.5405 35.1304C98.5405 35.044 98.5362 34.8869 98.5277 34.659C98.5107 34.2701 98.4001 33.9814 98.196 33.7928C97.9962 33.6042 97.7304 33.51 97.3987 33.51C97.0628 33.51 96.7927 33.6042 96.5886 33.7928C96.3887 33.9814 96.2803 34.2701 96.2633 34.659C96.2591 34.7729 96.2569 34.9301 96.2569 35.1304C96.2569 35.3268 96.2591 35.484 96.2633 35.6018C96.2803 35.9907 96.3887 36.2795 96.5886 36.468C96.7927 36.6566 97.0628 36.7509 97.3987 36.7509Z" fill="#848484"/>
<path d="M109.695 37.1928C109.653 37.1928 109.616 37.181 109.587 37.1575C109.561 37.13 109.548 37.0966 109.548 37.0573V33.2035C109.548 33.1643 109.561 33.1328 109.587 33.1093C109.616 33.0818 109.653 33.068 109.695 33.068H110.033C110.076 33.068 110.11 33.0818 110.135 33.1093C110.165 33.1328 110.18 33.1643 110.18 33.2035V36.6802H112.297C112.344 36.6802 112.38 36.6939 112.406 36.7214C112.436 36.745 112.451 36.7784 112.451 36.8216V37.0573C112.451 37.0966 112.436 37.13 112.406 37.1575C112.376 37.181 112.34 37.1928 112.297 37.1928H109.695Z" fill="#848484"/>
<path d="M124.161 37.2517C123.612 37.2517 123.187 37.1162 122.885 36.8451C122.587 36.5702 122.439 36.1557 122.439 35.6018V33.2094C122.439 33.1662 122.451 33.1328 122.477 33.1093C122.507 33.0818 122.543 33.068 122.585 33.068H122.911C122.957 33.068 122.994 33.0818 123.019 33.1093C123.049 33.1328 123.064 33.1662 123.064 33.2094V35.6136C123.064 35.9907 123.159 36.2736 123.351 36.4621C123.542 36.6507 123.812 36.745 124.161 36.745C124.51 36.745 124.78 36.6507 124.971 36.4621C125.162 36.2736 125.258 35.9907 125.258 35.6136V33.2094C125.258 33.1662 125.271 33.1328 125.296 33.1093C125.326 33.0818 125.362 33.068 125.405 33.068H125.736C125.779 33.068 125.813 33.0818 125.838 33.1093C125.868 33.1368 125.883 33.1702 125.883 33.2094V35.6018C125.883 36.1557 125.732 36.5702 125.43 36.8451C125.132 37.1162 124.709 37.2517 124.161 37.2517Z" fill="#848484"/>
<path d="M137.512 37.1928C137.47 37.1928 137.434 37.181 137.404 37.1575C137.378 37.13 137.366 37.0966 137.366 37.0573V33.5925H136.141C136.098 33.5925 136.062 33.5807 136.032 33.5571C136.007 33.5296 135.994 33.4962 135.994 33.4569V33.2094C135.994 33.1702 136.007 33.1368 136.032 33.1093C136.062 33.0818 136.098 33.068 136.141 33.068H139.215C139.262 33.068 139.298 33.0818 139.324 33.1093C139.354 33.1328 139.368 33.1662 139.368 33.2094V33.4569C139.368 33.4962 139.354 33.5296 139.324 33.5571C139.294 33.5807 139.258 33.5925 139.215 33.5925H137.997V37.0573C137.997 37.0966 137.982 37.13 137.952 37.1575C137.923 37.181 137.886 37.1928 137.844 37.1928H137.512Z" fill="#848484"/>
<path d="M149.67 37.1928C149.628 37.1928 149.592 37.181 149.562 37.1575C149.537 37.13 149.524 37.0966 149.524 37.0573V33.2035C149.524 33.1643 149.537 33.1328 149.562 33.1093C149.592 33.0818 149.628 33.068 149.67 33.068H150.009C150.051 33.068 150.085 33.0818 150.111 33.1093C150.14 33.1328 150.155 33.1643 150.155 33.2035V37.0573C150.155 37.0966 150.14 37.13 150.111 37.1575C150.085 37.181 150.051 37.1928 150.009 37.1928H149.67Z" fill="#848484"/>
<path d="M162.316 37.2517C161.759 37.2517 161.327 37.1182 161.021 36.851C160.719 36.58 160.559 36.1734 160.542 35.6313C160.538 35.5134 160.536 35.3465 160.536 35.1304C160.536 34.9144 160.538 34.7494 160.542 34.6354C160.559 34.1051 160.725 33.7025 161.04 33.4275C161.355 33.1486 161.78 33.0091 162.316 33.0091C162.847 33.0091 163.27 33.1486 163.585 33.4275C163.9 33.7025 164.065 34.1051 164.082 34.6354C164.091 34.8633 164.095 35.0283 164.095 35.1304C164.095 35.2286 164.091 35.3956 164.082 35.6313C164.065 36.1734 163.904 36.58 163.598 36.851C163.296 37.1182 162.868 37.2517 162.316 37.2517ZM162.316 36.7509C162.652 36.7509 162.919 36.6566 163.119 36.468C163.319 36.2795 163.428 35.9907 163.445 35.6018C163.453 35.3661 163.457 35.209 163.457 35.1304C163.457 35.044 163.453 34.8869 163.445 34.659C163.428 34.2701 163.317 33.9814 163.113 33.7928C162.913 33.6042 162.647 33.51 162.316 33.51C161.98 33.51 161.71 33.6042 161.506 33.7928C161.306 33.9814 161.197 34.2701 161.18 34.659C161.176 34.7729 161.174 34.9301 161.174 35.1304C161.174 35.3268 161.176 35.484 161.18 35.6018C161.197 35.9907 161.306 36.2795 161.506 36.468C161.71 36.6566 161.98 36.7509 162.316 36.7509Z" fill="#848484"/>
<path d="M174.612 37.1928C174.569 37.1928 174.533 37.181 174.504 37.1575C174.478 37.13 174.465 37.0966 174.465 37.0573V33.2094C174.465 33.1662 174.478 33.1328 174.504 33.1093C174.533 33.0818 174.569 33.068 174.612 33.068H174.905C174.982 33.068 175.035 33.0955 175.065 33.1505L177.183 36.1557V33.2094C177.183 33.1662 177.195 33.1328 177.221 33.1093C177.251 33.0818 177.287 33.068 177.329 33.068H177.635C177.682 33.068 177.718 33.0818 177.744 33.1093C177.774 33.1328 177.788 33.1662 177.788 33.2094V37.0514C177.788 37.0907 177.774 37.1241 177.744 37.1516C177.718 37.1791 177.684 37.1928 177.642 37.1928H177.336C177.272 37.1928 177.221 37.1653 177.183 37.1103L175.071 34.1346V37.0573C175.071 37.0966 175.056 37.13 175.027 37.1575C174.997 37.181 174.961 37.1928 174.918 37.1928H174.612Z" fill="#848484"/>
<path d="M189.776 37.2517C189.423 37.2517 189.117 37.2007 188.857 37.0985C188.602 36.9964 188.407 36.8628 188.27 36.6978C188.134 36.5289 188.062 36.3482 188.054 36.1557C188.054 36.1243 188.066 36.0968 188.092 36.0732C188.122 36.0457 188.156 36.032 188.194 36.032H188.519C188.6 36.032 188.655 36.0713 188.685 36.1498C188.723 36.3148 188.832 36.4562 189.01 36.5741C189.193 36.6919 189.448 36.7509 189.776 36.7509C190.129 36.7509 190.395 36.6939 190.573 36.58C190.752 36.4621 190.841 36.2991 190.841 36.0909C190.841 35.9573 190.796 35.8493 190.707 35.7668C190.622 35.6843 190.494 35.6116 190.324 35.5488C190.154 35.4859 189.899 35.4074 189.559 35.3131C189.227 35.2267 188.964 35.1343 188.768 35.0361C188.572 34.9379 188.426 34.8161 188.328 34.6708C188.23 34.5254 188.181 34.3428 188.181 34.1228C188.181 33.9107 188.243 33.7201 188.366 33.5512C188.494 33.3823 188.674 33.2507 188.908 33.1564C189.142 33.0582 189.421 33.0091 189.744 33.0091C190.076 33.0091 190.36 33.0641 190.599 33.1741C190.837 33.2802 191.017 33.4157 191.141 33.5807C191.264 33.7457 191.33 33.9107 191.339 34.0756C191.339 34.1071 191.326 34.1346 191.3 34.1581C191.279 34.1817 191.247 34.1935 191.205 34.1935H190.867C190.777 34.1935 190.722 34.1562 190.701 34.0815C190.675 33.9165 190.575 33.781 190.401 33.675C190.227 33.565 190.008 33.51 189.744 33.51C189.455 33.51 189.227 33.561 189.061 33.6632C188.896 33.7653 188.813 33.9165 188.813 34.1169C188.813 34.2505 188.851 34.3605 188.927 34.4469C189.008 34.5333 189.129 34.6099 189.291 34.6767C189.453 34.7395 189.689 34.8122 189.999 34.8947C190.36 34.9851 190.645 35.0793 190.854 35.1776C191.062 35.2718 191.217 35.3917 191.319 35.537C191.421 35.6784 191.472 35.8591 191.472 36.0791C191.472 36.4445 191.319 36.7312 191.013 36.9394C190.707 37.1476 190.295 37.2517 189.776 37.2517Z" fill="#848484"/>
<defs>
<linearGradient id="paint0_linear" x1="8.4375" y1="30.9375" x2="18.6648" y2="20.7102" gradientUnits="userSpaceOnUse">
<stop stop-color="#128B33"/>
<stop offset="1" stop-color="#43FF78"/>
</linearGradient>
<linearGradient id="paint1_linear" x1="8.43751" y1="14.0625" x2="18.6648" y2="24.2898" gradientUnits="userSpaceOnUse">
<stop stop-color="#43FF78"/>
<stop offset="1" stop-color="#128B33"/>
</linearGradient>
<linearGradient id="paint2_linear" x1="20.7102" y1="26.3352" x2="30.9375" y2="36.5625" gradientUnits="userSpaceOnUse">
<stop stop-color="#7D9EE3"/>
<stop offset="1" stop-color="#083695"/>
</linearGradient>
<linearGradient id="paint3_linear" x1="14.0625" y1="36.5625" x2="24.2898" y2="26.3352" gradientUnits="userSpaceOnUse">
<stop stop-color="#7D9EE3"/>
<stop offset="1" stop-color="#083695"/>
</linearGradient>
<linearGradient id="paint4_linear" x1="20.7102" y1="18.6648" x2="30.9375" y2="8.43751" gradientUnits="userSpaceOnUse">
<stop stop-color="#F8E993"/>
<stop offset="1" stop-color="#FAC014"/>
</linearGradient>
<linearGradient id="paint5_linear" x1="14.0625" y1="8.43751" x2="24.2898" y2="18.6648" gradientUnits="userSpaceOnUse">
<stop stop-color="#F8E993"/>
<stop offset="1" stop-color="#FAC014"/>
</linearGradient>
<linearGradient id="paint6_linear" x1="26.3352" y1="20.7102" x2="36.5625" y2="30.9375" gradientUnits="userSpaceOnUse">
<stop stop-color="#FD575F"/>
<stop offset="1" stop-color="#93050E"/>
</linearGradient>
<linearGradient id="paint7_linear" x1="26.3352" y1="24.2898" x2="36.5625" y2="14.0625" gradientUnits="userSpaceOnUse">
<stop stop-color="#93050E"/>
<stop offset="1" stop-color="#FD575F"/>
</linearGradient>
</defs>
</svg>
