<svg width="24" height="24" viewBox="0 0 24 24" fill="none" xmlns="http://www.w3.org/2000/svg">
<path d="M17.2383 12.035C16.0752 12.035 15.1289 12.9812 15.1289 14.1443C15.1289 15.3074 16.0752 16.2537 17.2383 16.2537H20.2265C20.2385 16.2537 20.2501 16.2525 20.2619 16.2519C20.2735 16.2525 20.285 16.2537 20.2969 16.2537C20.6852 16.2537 21 15.9389 21 15.5505V10.031C21 9.09495 20.5399 8.26474 19.8344 7.75325L17.4423 3.82912C17.3448 3.66909 17.1874 3.55462 17.0051 3.51116C16.8228 3.46764 16.6307 3.49875 16.4714 3.59754L14.7074 4.69146L13.9119 3.34519C13.8162 3.18333 13.6597 3.06654 13.4774 3.02084C13.2951 2.97514 13.102 3.00442 12.9413 3.10202L6.16789 7.21853H5.10937C4.72754 7.21853 4.41581 6.9126 4.40646 6.53298C4.41581 6.15336 4.72754 5.84743 5.10937 5.84743H6.41015C6.79849 5.84743 7.11328 5.53265 7.11328 5.14431C7.11328 4.75597 6.79849 4.44119 6.41015 4.44119H5.10937C4.11452 4.44119 3.2784 5.13355 3.0573 6.06171C3.02053 6.147 3 6.24087 3 6.33962V6.5154V6.55056V18.1873C3 19.7381 4.26169 20.9998 5.8125 20.9998H18.1875C19.4 20.9998 20.4724 20.2273 20.8559 19.0777C20.9788 18.7094 20.7798 18.3111 20.4114 18.1882C20.0431 18.0654 19.6448 18.2644 19.5219 18.6327C19.3302 19.2074 18.794 19.5935 18.1875 19.5935H5.8125C5.03709 19.5935 4.40625 18.9627 4.40625 18.1873V8.50415C4.62629 8.5822 4.86293 8.62477 5.10937 8.62477H18.1875C18.9629 8.62477 19.5937 9.25562 19.5937 10.031V12.035H17.2383ZM19.5937 14.8474H17.2383C16.8506 14.8475 16.5351 14.532 16.5351 14.1443C16.5351 13.7566 16.8506 13.4412 17.2383 13.4412H19.5937V14.8474ZM8.87559 7.21856L13.0634 4.6735L13.8121 5.94056C13.8265 5.97519 13.843 6.00933 13.8634 6.04223C13.8787 6.06688 13.8956 6.08984 13.9133 6.11191L14.5672 7.21856H8.87559ZM16.2006 7.21853L15.4229 5.90242L16.6104 5.16607L17.8615 7.21853H16.2006Z" fill="white"/>
</svg>
