<svg width="24" height="24" viewBox="0 0 24 24" fill="none" xmlns="http://www.w3.org/2000/svg">
<path fill-rule="evenodd" clip-rule="evenodd" d="M21.6771 19.0195L20.7893 14.5469C21.3809 13.5647 21.6923 12.4787 21.6923 11.3846C21.6923 7.38174 17.1832 4 11.8462 4C6.50913 4 2 7.38174 2 11.3846C2 15.4564 6.23303 18.7692 11.4359 18.7692C12.1387 18.7692 13.7863 18.7019 14.5887 18.5403C15.1783 18.4246 15.7612 18.2601 16.3266 18.0496C18.3803 18.8682 20.4356 19.8793 20.5066 19.9142L20.5083 19.9151C20.6236 19.9721 20.7479 20 20.8718 20C21.049 20 21.225 19.9426 21.3711 19.8306C21.6189 19.6406 21.7378 19.3264 21.6771 19.0195ZM19.1151 14.5431L19.7493 17.7398C18.8878 17.3439 17.7543 16.843 16.6277 16.4049C16.5329 16.3679 16.4279 16.3491 16.3262 16.3491C16.2203 16.3491 16.1153 16.3696 16.0172 16.4094C15.4535 16.6387 14.8669 16.8139 14.2691 16.9308C13.6702 17.0514 12.1912 17.1282 11.4359 17.1282C7.13764 17.1282 3.64103 14.5517 3.64103 11.3846C3.64103 8.32487 7.47528 5.64097 11.8462 5.64097C16.217 5.64097 20.0513 8.32487 20.0513 11.3846C20.0513 12.2736 19.7785 13.1277 19.2402 13.9241C19.1175 14.1054 19.0728 14.3286 19.1151 14.5431ZM14.3077 8.92308H7.74358C7.29065 8.92308 6.92306 9.29067 6.92306 9.74359C6.92306 10.1965 7.29065 10.5641 7.74358 10.5641H14.3077C14.7606 10.5641 15.1282 10.1965 15.1282 9.74359C15.1282 9.29062 14.7606 8.92308 14.3077 8.92308ZM7.74358 12.2051H12.6667C13.1196 12.2051 13.4872 12.5727 13.4872 13.0256C13.4872 13.4786 13.1196 13.8462 12.6667 13.8462H7.74358C7.29065 13.8462 6.92306 13.4786 6.92306 13.0256C6.92306 12.5727 7.29065 12.2051 7.74358 12.2051Z" fill="white"/>
</svg>
