<svg width="24" height="24" viewBox="0 0 24 24" fill="none" xmlns="http://www.w3.org/2000/svg">
<path d="M20.9544 18.4239C20.8752 18.0438 20.5028 17.7998 20.1227 17.8789C19.7425 17.9581 19.4985 18.3304 19.5776 18.7106C19.6232 18.9295 19.569 19.154 19.4287 19.3265C19.3475 19.4263 19.1664 19.5939 18.8663 19.5939H15.6914C15.3031 19.5939 14.9883 19.9086 14.9883 20.297C14.9883 20.6853 15.3031 21.0001 15.6914 21.0001H18.8663C19.5106 21.0001 20.1133 20.7135 20.5197 20.2137C20.9282 19.7114 21.0866 19.0591 20.9544 18.4239Z" fill="white"/>
<path d="M12.7139 12.5895C15.0239 12.8023 17.1252 14.0404 18.4339 15.9922C18.6501 16.3148 19.087 16.401 19.4094 16.1847C19.732 15.9684 19.8181 15.5316 19.6019 15.2091C18.4481 13.4883 16.7727 12.2373 14.8624 11.6087C16.0266 10.7358 16.7812 9.345 16.7812 7.78125C16.7812 5.14485 14.6364 3 12 3C9.36362 3 7.21874 5.14485 7.21874 7.78125C7.21874 9.34602 7.97431 10.7376 9.13978 11.6104C8.07205 11.9619 7.0701 12.5085 6.19323 13.2297C4.58546 14.5522 3.4676 16.3969 3.04562 18.4238C2.91336 19.059 3.07181 19.7113 3.48026 20.2136C3.88666 20.7134 4.48935 21 5.13372 21H8.20311C8.59145 21 8.90624 20.6852 8.90624 20.2969C8.90624 19.9085 8.59145 19.5938 8.20311 19.5938H5.13365C4.83349 19.5938 4.65244 19.4262 4.57119 19.3264C4.43095 19.1539 4.37667 18.9294 4.42227 18.7104C5.11077 15.4034 7.90203 12.9377 11.214 12.5973L9.8717 18.7043C9.82026 18.9385 9.8917 19.1828 10.0613 19.3524L11.4676 20.7589C11.5994 20.8908 11.7783 20.9648 11.9648 20.9648C12.1513 20.9648 12.3302 20.8907 12.462 20.7589L13.8682 19.3524C14.0378 19.1828 14.1092 18.9385 14.0578 18.7043L12.7139 12.5895ZM8.62499 7.78125C8.62499 5.92025 10.139 4.40625 12 4.40625C13.861 4.40625 15.375 5.92025 15.375 7.78125C15.375 9.58607 13.951 11.0645 12.1675 11.1521C12.1117 11.1511 12.0559 11.1504 12 11.1504C11.9451 11.1504 11.8903 11.1512 11.8355 11.1522C10.0506 11.0661 8.62499 9.58709 8.62499 7.78125ZM11.9648 19.2673L11.3279 18.6302L11.9648 15.7325L12.6017 18.6303L11.9648 19.2673Z" fill="white"/>
</svg>
