<svg width="24" height="24" viewBox="0 0 24 24" fill="none" xmlns="http://www.w3.org/2000/svg">
<path fill-rule="evenodd" clip-rule="evenodd" d="M19.5147 12.7795L21.5377 14.3296C21.8513 14.5699 21.9361 15.0065 21.7353 15.3468L19.7762 18.6663C19.5811 18.9969 19.1745 19.1368 18.8171 18.9961L16.4169 18.0508C15.9786 18.3645 15.5094 18.6303 15.0144 18.8453L14.6541 21.3309C14.5984 21.715 14.2691 22 13.881 22H9.96283C9.57467 22 9.24537 21.715 9.18966 21.3308L8.82935 18.8453C8.33439 18.6302 7.86517 18.3644 7.42689 18.0507L5.02666 18.996C4.66927 19.1368 4.26271 18.9969 4.06756 18.6662L2.10853 15.3468C1.90767 15.0065 1.99252 14.5698 2.30615 14.3295L4.32912 12.7794C4.27572 12.276 4.27224 11.7567 4.32912 11.2205L2.30611 9.67047C1.99252 9.43016 1.90767 8.99352 2.10849 8.65324L4.06759 5.33383C4.26275 5.00312 4.66927 4.86324 5.0267 5.00402L7.42689 5.94934C7.86525 5.63562 8.33443 5.36984 8.82939 5.15477L9.1897 2.66922C9.24537 2.285 9.57467 2 9.96283 2H13.881C14.2691 2 14.5984 2.285 14.6541 2.66918L15.0144 5.15473C15.5094 5.36977 15.9786 5.63559 16.4169 5.9493L18.8171 5.00398C19.1745 4.86324 19.5811 5.00309 19.7762 5.33379L21.7353 8.65324C21.9361 8.99352 21.8513 9.43016 21.5377 9.67047L19.5147 11.2206C19.5681 11.724 19.5716 12.2433 19.5147 12.7795ZM16.5801 16.4357L18.7694 17.2979L20.0378 15.1487L18.2034 13.7431C17.9729 13.5664 17.8593 13.2764 17.9087 12.9902C18.0199 12.3452 18.0237 11.6768 17.9087 11.0098C17.8593 10.7235 17.9729 10.4336 18.2034 10.2569L20.0378 8.85125L18.7694 6.70207L16.5801 7.5643C16.3179 7.66758 16.0204 7.62164 15.8016 7.4441C15.2733 7.01551 14.6804 6.6802 14.0393 6.44746C13.7687 6.34922 13.5741 6.11012 13.5328 5.8252L13.2048 3.5625H10.639L10.311 5.8252C10.2697 6.11012 10.0751 6.34922 9.80447 6.44746C9.16342 6.6802 8.57049 7.01551 8.0422 7.4441C7.82338 7.6216 7.52599 7.66762 7.26369 7.5643L5.07435 6.70207L3.80595 8.85125L5.64033 10.2569C5.87088 10.4335 5.98443 10.7235 5.93506 11.0098C5.82384 11.6548 5.82006 12.3232 5.93506 12.9902C5.98443 13.2764 5.87088 13.5664 5.64033 13.7431L3.80595 15.1487L5.07435 17.2979L7.26369 16.4357C7.52588 16.3324 7.82338 16.3784 8.0422 16.5559C8.57045 16.9845 9.16338 17.3198 9.80447 17.5525C10.0751 17.6508 10.2697 17.8899 10.311 18.1748L10.639 20.4375H13.2048L13.5328 18.1748C13.5741 17.8899 13.7687 17.6508 14.0393 17.5525C14.6804 17.3198 15.2733 16.9845 15.8016 16.5559C16.0204 16.3784 16.3178 16.3324 16.5801 16.4357ZM8.79689 12C8.79689 10.2769 10.1987 8.875 11.9219 8.875C13.6451 8.875 15.0469 10.2769 15.0469 12C15.0469 13.7231 13.645 15.125 11.9219 15.125C10.1988 15.125 8.79689 13.7231 8.79689 12ZM10.3594 12C10.3594 12.8616 11.0603 13.5625 11.9219 13.5625C12.7835 13.5625 13.4844 12.8616 13.4844 12C13.4844 11.1384 12.7835 10.4375 11.9219 10.4375C11.0603 10.4375 10.3594 11.1384 10.3594 12Z" fill="white"/>
</svg>
