<svg width="34" height="34" viewBox="0 0 34 34" fill="none" xmlns="http://www.w3.org/2000/svg">
<path d="M33.938 8.11631L31.5095 0.830599C31.3443 0.334474 30.88 -0.000142254 30.3571 4.5368e-08H3.64286C3.11998 -0.000142254 2.65573 0.334474 2.49052 0.830599L0.0619001 8.11631C0.0244754 8.22972 0.00355748 8.3479 0 8.46722C0 8.47938 0 8.48785 0 8.50002V9.71433C0.00441127 11.6169 0.904097 13.4064 2.42855 14.5447C2.42855 14.5545 2.42855 14.5617 2.42855 14.5714V30.3571C2.42855 32.369 4.05951 34 6.0714 34H27.9285C29.9404 34 31.5714 32.369 31.5714 30.3571V14.5714C31.5714 14.5617 31.5714 14.5544 31.5714 14.5447C33.0958 13.4064 33.9956 11.6169 33.9999 9.71433V8.50002C33.9999 8.48785 33.9999 8.47938 33.9999 8.46722C33.9964 8.34783 33.9755 8.22965 33.938 8.11631ZM25.5 2.42855H29.4817L31.1015 7.28571H25.5V2.42855ZM18.2143 2.42855H23.0714V7.28571H18.2143V2.42855ZM10.9286 2.42855H15.7857V7.28571H10.9286V2.42855ZM4.51835 2.42855H8.50002V7.28571H2.89849L4.51835 2.42855ZM19.4286 31.5714H14.5714V21.8571H19.4286V31.5714ZM29.1428 30.3571C29.1428 31.0278 28.5992 31.5715 27.9285 31.5715H21.8571V20.6429C21.8571 19.9722 21.3135 19.4286 20.6428 19.4286H13.3571C12.6865 19.4286 12.1428 19.9722 12.1428 20.6429V31.5715H6.0714C5.40075 31.5715 4.85709 31.0278 4.85709 30.3571V15.6643C6.56119 16.0141 8.33324 15.6074 9.71426 14.5496C11.8819 16.1416 14.8323 16.1416 17 14.5496C19.1676 16.1416 22.118 16.1416 24.2857 14.5496C25.6667 15.6075 27.4387 16.0141 29.1428 15.6643V30.3571ZM27.9285 13.3571C26.8784 13.3565 25.8813 12.8958 25.2 12.0967C24.7587 11.5917 23.9916 11.5401 23.4867 11.9814C23.4457 12.0172 23.4071 12.0557 23.3713 12.0967C22.0211 13.6036 19.7051 13.7306 18.1981 12.3805C18.0984 12.2911 18.0037 12.1964 17.9143 12.0967C17.4391 11.5917 16.6445 11.5676 16.1395 12.0428C16.121 12.0603 16.103 12.0782 16.0856 12.0967C14.7355 13.6036 12.4194 13.7306 10.9124 12.3805C10.8127 12.2911 10.718 12.1964 10.6286 12.0967C10.1534 11.5917 9.35872 11.5676 8.85377 12.0428C8.83528 12.0603 8.81727 12.0782 8.79991 12.0967C8.11866 12.8958 7.12157 13.3565 6.0714 13.3571C4.05951 13.3571 2.42855 11.7262 2.42855 9.71426H31.5714C31.5714 11.7262 29.9404 13.3571 27.9285 13.3571Z" fill="white"/>
</svg>
