<svg width="79" height="50" viewBox="0 0 79 50" fill="none" xmlns="http://www.w3.org/2000/svg">
<path d="M61.8859 21.9448C61.4681 21.2771 61.0735 20.6463 60.9258 20.0941C60.7668 19.499 60.7918 18.7296 60.8183 17.9149C60.8608 16.6058 60.909 15.1219 60.1648 13.8357C59.4103 12.5315 58.0907 11.8298 56.9266 11.2107C56.2161 10.8328 55.5451 10.476 55.1233 10.0542C54.7017 9.6325 54.3448 8.96139 53.9669 8.25098C53.3478 7.08672 52.646 5.76727 51.3417 5.01273C50.0555 4.26854 48.5719 4.31638 47.2626 4.35928C46.4478 4.38557 45.6783 4.41062 45.0833 4.25165C44.5311 4.10397 43.9004 3.70933 43.2326 3.29153C42.1044 2.58569 40.8255 1.7854 39.285 1.7854C37.7445 1.7854 36.4656 2.58568 35.3372 3.29163C34.6695 3.70942 34.0387 4.10416 33.4864 4.25174C32.8913 4.41072 32.122 4.38566 31.3072 4.35937C29.9982 4.31666 28.5144 4.26864 27.2281 5.01283C25.9239 5.76737 25.2222 7.08691 24.603 8.25108C24.2252 8.96148 23.8682 9.63259 23.4465 10.0543C23.0248 10.4759 22.3538 10.8328 21.6433 11.2107C20.4791 11.8298 19.1597 12.5315 18.4051 13.8358C17.6609 15.122 17.7091 16.6059 17.7515 17.9149C17.778 18.7297 17.803 19.4992 17.6439 20.0943C17.4962 20.6466 17.1017 21.2772 16.6838 21.9449C15.978 23.0732 15.1777 24.3522 15.1777 25.8926C15.1777 27.4331 15.978 28.7121 16.6841 29.8405C17.1019 30.5082 17.4965 31.139 17.6442 31.6912C17.8031 32.2863 17.7782 33.0557 17.7517 33.8704C17.7092 35.1795 17.661 36.6634 18.4052 37.9496C19.1597 39.2537 20.4792 39.9555 21.6433 40.5746C22.3538 40.9525 23.0248 41.3093 23.4466 41.7311C23.8683 42.1528 24.2252 42.8239 24.6031 43.5343C25.2222 44.6986 25.924 46.018 27.2282 46.7726C28.5145 47.5167 29.998 47.4689 31.3074 47.426C32.1221 47.3996 32.8916 47.3747 33.4866 47.5336C34.0389 47.6813 34.6696 48.076 35.3374 48.4938C36.4656 49.1996 37.7445 49.9999 39.285 49.9999C40.8255 49.9999 42.1044 49.1996 43.2328 48.4937C43.9005 48.0759 44.5312 47.6811 45.0835 47.5335C45.6786 47.3745 46.448 47.3995 47.2628 47.4259C48.5718 47.4688 50.0557 47.5167 51.3418 46.7725C52.6461 46.0179 53.3478 44.6984 53.967 43.5342C54.3448 42.8238 54.7017 42.1527 55.1234 41.731C55.5451 41.3094 56.2161 40.9525 56.9266 40.5746C58.0908 39.9555 59.4103 39.2537 60.1649 37.9495C60.9091 36.6633 60.8609 35.1794 60.8184 33.8703C60.792 33.0556 60.767 32.2861 60.9261 31.691C61.0737 31.1387 61.4683 30.508 61.8862 29.8403C62.5919 28.7121 63.3922 27.4331 63.3922 25.8926C63.3922 24.3522 62.5919 23.0732 61.8859 21.9448ZM59.4722 28.3301C58.9613 29.1466 58.4331 29.9908 58.1751 30.9559C57.9073 31.9578 57.9404 32.977 57.9724 33.9629C58.0054 34.9808 58.0366 35.9421 57.7002 36.5237C57.3536 37.1225 56.4967 37.5782 55.5894 38.0607C54.7256 38.5202 53.8324 38.9952 53.1099 39.7177C52.3875 40.4401 51.9123 41.3333 51.453 42.1972C50.9704 43.1045 50.5147 43.9615 49.9159 44.3079C49.3344 44.6444 48.3729 44.6132 47.3551 44.5801C46.3694 44.5481 45.3501 44.5149 44.3483 44.7828C43.3831 45.0407 42.5389 45.569 41.7224 46.0799C40.8408 46.6315 40.0081 47.1526 39.285 47.1526C38.5619 47.1526 37.7292 46.6315 36.8476 46.0799C36.0311 45.569 35.1868 45.0407 34.2217 44.7828C33.5497 44.6031 32.8699 44.559 32.1975 44.559C31.8675 44.559 31.5393 44.5696 31.2148 44.5802C30.1969 44.6132 29.2356 44.6446 28.6541 44.308C28.0552 43.9616 27.5995 43.1046 27.117 42.1973C26.6575 41.3334 26.1825 40.4402 25.46 39.7178C24.7376 38.9953 23.8443 38.5202 22.9804 38.0607C22.0732 37.5782 21.2162 37.1224 20.8698 36.5237C20.5333 35.9421 20.5646 34.9808 20.5976 33.963C20.6296 32.9772 20.6627 31.9579 20.395 30.956C20.137 29.991 19.6087 29.1467 19.0979 28.3303C18.5461 27.4486 18.025 26.6158 18.025 25.8926C18.025 25.1695 18.5461 24.3368 19.0977 23.4552C19.6086 22.6387 20.1369 21.7945 20.3949 20.8294C20.6626 19.8275 20.6296 18.8082 20.5976 17.8224C20.5646 16.8045 20.5333 15.8432 20.8698 15.2616C21.2163 14.6627 22.0733 14.2071 22.9805 13.7246C23.8444 13.2651 24.7376 12.7901 25.46 12.0676C26.1825 11.3452 26.6576 10.452 27.117 9.58808C27.5995 8.68074 28.0553 7.82379 28.6541 7.47737C29.2357 7.14091 30.1971 7.17223 31.2148 7.20516C32.2006 7.23734 33.2199 7.27046 34.2217 7.00253C35.1868 6.74456 36.0311 6.21629 36.8476 5.70539C37.7291 5.15377 38.5619 4.63271 39.285 4.63271C40.0081 4.63271 40.8407 5.15377 41.7224 5.70539C42.5389 6.21629 43.3831 6.74456 44.3483 7.00253C45.35 7.27027 46.3695 7.23724 47.3551 7.20516C48.3731 7.17233 49.3344 7.14091 49.9159 7.47737C50.5148 7.82379 50.9704 8.68083 51.453 9.58808C51.9124 10.452 52.3875 11.3452 53.1099 12.0676C53.8324 12.7901 54.7257 13.2652 55.5895 13.7247C56.4968 14.2072 57.3537 14.6629 57.7002 15.2616C58.0366 15.8432 58.0054 16.8046 57.9724 17.8224C57.9404 18.8082 57.9073 19.8275 58.175 20.8294C58.433 21.7944 58.9612 22.6386 59.472 23.4551C60.0239 24.3367 60.5449 25.1695 60.5449 25.8926C60.5449 26.6158 60.0238 27.4485 59.4722 28.3301Z" fill="white"/>
<path d="M36.6381 28.825L32.6993 24.8863L30.686 26.8995L36.5974 32.811L47.8642 21.9949L45.8924 19.9408L36.6381 28.825Z" fill="white"/>
<path d="M39.2851 9.28369C30.1267 9.28369 22.6758 16.7346 22.6758 25.893C22.6758 35.0514 30.1267 42.5023 39.2851 42.5023C48.4435 42.5023 55.8944 35.0514 55.8944 25.893C55.8944 16.7346 48.4435 9.28369 39.2851 9.28369ZM39.2851 39.655C31.6967 39.655 25.5231 33.4814 25.5231 25.893C25.5231 18.3046 31.6967 12.131 39.2851 12.131C46.8735 12.131 53.0471 18.3046 53.0471 25.893C53.0471 33.4814 46.8735 39.655 39.2851 39.655Z" fill="white"/>
<path d="M9.26372 34.1496C9.35769 33.8603 9.28389 33.5428 9.07185 33.3247L7.51353 31.7213L7.83175 29.5082C7.87504 29.2072 7.74812 28.9069 7.50213 28.7281C7.25606 28.5494 6.93136 28.5215 6.65831 28.6557L4.65189 29.6423L2.64546 28.6557C2.37258 28.5215 2.04779 28.5494 1.80164 28.7281C1.55566 28.9069 1.42873 29.2071 1.47202 29.5082L1.79024 31.7213L0.232003 33.3247C0.0200446 33.5428 -0.0538333 33.8603 0.0401335 34.1496C0.1341 34.4388 0.380497 34.6523 0.68019 34.7041L2.88341 35.0853L3.9268 37.0629C4.06865 37.3318 4.34785 37.5001 4.65197 37.5001C4.95609 37.5001 5.23528 37.3318 5.37713 37.0629L6.42053 35.0853L8.62374 34.7041C8.92336 34.6523 9.16967 34.4388 9.26372 34.1496ZM5.74365 33.5382C5.49316 33.5815 5.27694 33.7387 5.15829 33.9635L4.65197 34.9231L4.14565 33.9635C4.027 33.7387 3.81078 33.5815 3.56028 33.5382L2.49122 33.3532L3.24739 32.5752C3.42458 32.3928 3.50715 32.1386 3.47099 31.887L3.31659 30.813L4.2902 31.2918C4.5184 31.4039 4.78562 31.4039 5.01381 31.2918L5.98743 30.813L5.83303 31.887C5.79687 32.1386 5.87944 32.3928 6.05663 32.5752L6.81279 33.3532L5.74365 33.5382Z" fill="white"/>
<path d="M19.8444 3.34682C19.9007 3.17325 19.8565 2.98276 19.7292 2.85189L18.7942 1.88989L18.9852 0.562007C19.0112 0.381404 18.935 0.201243 18.7874 0.0939441C18.6398 -0.0133059 18.4449 -0.0300328 18.2811 0.0505031L17.0773 0.642444L15.8734 0.0505031C15.7097 -0.0300328 15.5148 -0.0132567 15.3671 0.0939441C15.2195 0.201194 15.1434 0.381355 15.1693 0.562007L15.3603 1.88989L14.4253 2.85189C14.2982 2.98276 14.2538 3.17325 14.3102 3.34682C14.3666 3.52034 14.5144 3.64845 14.6942 3.67954L16.0162 3.90826L16.6422 5.0948C16.7273 5.25616 16.8948 5.35716 17.0773 5.35716C17.2598 5.35716 17.4273 5.25616 17.5124 5.0948L18.1384 3.90826L19.4604 3.67954C19.6401 3.64845 19.7879 3.52039 19.8444 3.34682ZM17.7323 2.98C17.582 3.00598 17.4523 3.10029 17.3811 3.23519L17.0773 3.81094L16.7735 3.23519C16.7023 3.10029 16.5726 3.00598 16.4223 2.98L15.7809 2.86901L16.2346 2.40218C16.3409 2.29277 16.3904 2.14026 16.3687 1.98927L16.2761 1.34488L16.8603 1.63215C16.9972 1.69945 17.1575 1.69945 17.2944 1.63215L17.8786 1.34488L17.786 1.98927C17.7643 2.14026 17.8138 2.29277 17.9201 2.40218L18.3738 2.86901L17.7323 2.98Z" fill="white"/>
<path d="M74.3082 33.7042C74.3646 33.5307 74.3203 33.3402 74.1931 33.2093L73.2581 32.2473L73.4491 30.9194C73.475 30.7388 73.3989 30.5587 73.2513 30.4514C73.1036 30.3441 72.9088 30.3274 72.745 30.4079L71.5411 30.9999L70.3373 30.4079C70.1735 30.3274 69.9787 30.3442 69.831 30.4514C69.6834 30.5586 69.6072 30.7388 69.6332 30.9194L69.8241 32.2473L68.8892 33.2093C68.762 33.3402 68.7177 33.5307 68.7741 33.7042C68.8305 33.8778 68.9783 34.0059 69.1581 34.037L70.48 34.2657L71.1061 35.4522C71.1912 35.6136 71.3587 35.7146 71.5412 35.7146C71.7237 35.7146 71.8912 35.6136 71.9763 35.4522L72.6023 34.2657L73.9242 34.037C74.104 34.0059 74.2518 33.8778 74.3082 33.7042ZM72.1962 33.3374C72.0459 33.3634 71.9162 33.4577 71.845 33.5926L71.5412 34.1684L71.2374 33.5926C71.1662 33.4577 71.0365 33.3634 70.8862 33.3374L70.2447 33.2264L70.6984 32.7596C70.8047 32.6502 70.8543 32.4977 70.8326 32.3467L70.74 31.7023L71.3241 31.9896C71.461 32.0569 71.6214 32.0569 71.7583 31.9896L72.3425 31.7023L72.2498 32.3467C72.2281 32.4977 72.2777 32.6502 72.384 32.7596L72.8377 33.2264L72.1962 33.3374Z" fill="white"/>
<path d="M78.8387 15.177C78.9139 14.9456 78.8548 14.6916 78.6852 14.5171L77.4386 13.2345L77.6931 11.4639C77.7278 11.2231 77.6262 10.9829 77.4294 10.8399C77.2326 10.6969 76.9728 10.6746 76.7544 10.7819L75.1492 11.5712L73.5441 10.7819C73.3258 10.6746 73.066 10.6969 72.869 10.8399C72.6723 10.9829 72.5707 11.2231 72.6054 11.4639L72.8599 13.2345L71.6133 14.5171C71.4438 14.6916 71.3847 14.9456 71.4598 15.177C71.535 15.4084 71.7321 15.5792 71.9719 15.6207L73.7345 15.9256L74.5692 17.5077C74.6827 17.7228 74.906 17.8575 75.1493 17.8575C75.3926 17.8575 75.616 17.7228 75.7294 17.5077L76.5642 15.9256L78.3267 15.6207C78.5664 15.5792 78.7635 15.4084 78.8387 15.177ZM76.0227 14.6879C75.8223 14.7226 75.6493 14.8483 75.5544 15.0282L75.1493 15.7959L74.7443 15.0282C74.6493 14.8483 74.4764 14.7226 74.276 14.6879L73.4207 14.54L74.0256 13.9175C74.1674 13.7716 74.2335 13.5683 74.2045 13.367L74.081 12.5078L74.8599 12.8908C75.0425 12.9805 75.2562 12.9805 75.4388 12.8908L76.2177 12.5078L76.0942 13.367C76.0652 13.5683 76.1313 13.7716 76.273 13.9175L76.878 14.54L76.0227 14.6879Z" fill="white"/>
</svg>
