<svg width="17" height="18" viewBox="0 0 17 18" fill="none" xmlns="http://www.w3.org/2000/svg">
<path d="M15.5455 13.0909H14.7273V6.54546C14.7273 2.93646 11.7908 0 8.18184 0C4.57284 0 1.63638 2.93646 1.63638 6.54546V13.0909H0.818191C0.36573 13.0909 0 13.4567 0 13.9091C0 14.3616 0.36573 14.7273 0.818191 14.7273H1.63638H4.90911C4.90911 16.5322 6.37692 18 8.18184 18C9.98677 18 11.4546 16.5322 11.4546 14.7273H14.7273H15.5455C15.998 14.7273 16.3637 14.3615 16.3637 13.9091C16.3637 13.4566 15.9979 13.0909 15.5455 13.0909ZM8.18184 16.3637C7.27938 16.3637 6.5455 15.6297 6.5455 14.7273H9.81823C9.81819 15.6297 9.0843 16.3637 8.18184 16.3637ZM13.0909 13.0909H11.4546H4.90911H3.27277V6.54546C3.27277 3.83811 5.4745 1.63638 8.18184 1.63638C10.8892 1.63638 13.0909 3.83811 13.0909 6.54546V13.0909Z" fill="white"/>
</svg>
