<svg width="24" height="24" viewBox="0 0 24 24" fill="none" xmlns="http://www.w3.org/2000/svg">
<path d="M20.2969 11.2969H15.6562V3.70312C15.6562 3.31479 15.3415 3 14.9531 3H3.70312C3.31479 3 3 3.31479 3 3.70312V17.4844C3 19.4229 4.57707 21 6.51562 21H17.4844C19.4484 21 21 19.4108 21 17.4844V12C21 11.6117 20.6852 11.2969 20.2969 11.2969ZM6.51562 19.5938C5.35252 19.5938 4.40625 18.6475 4.40625 17.4844V4.40625H14.25C14.25 4.45768 14.25 17.1297 14.25 17.4844C14.25 18.2459 14.4923 18.9803 14.951 19.5938H6.51562ZM19.5938 17.4844C19.5938 18.5978 18.7336 19.5149 17.6285 19.5888C16.5131 19.5178 15.6562 18.5914 15.6562 17.4844V12.7031H19.5938V17.4844Z" fill="white"/>
<path d="M9.32812 6.02344C7.97116 6.02344 6.86719 7.28513 6.86719 8.83594C6.86719 10.3868 7.97116 11.6484 9.32812 11.6484C10.6851 11.6484 11.7891 10.3868 11.7891 8.83594C11.7891 7.28513 10.6851 6.02344 9.32812 6.02344ZM9.32812 10.2422C8.75641 10.2422 8.27344 9.5982 8.27344 8.83594C8.27344 8.07368 8.75641 7.42969 9.32812 7.42969C9.89984 7.42969 10.3828 8.07368 10.3828 8.83594C10.3828 9.5982 9.89984 10.2422 9.32812 10.2422Z" fill="white"/>
<path d="M12.1406 16.7812H6.51562C6.12729 16.7812 5.8125 17.096 5.8125 17.4844C5.8125 17.8727 6.12729 18.1875 6.51562 18.1875H12.1406C12.529 18.1875 12.8438 17.8727 12.8438 17.4844C12.8438 17.096 12.529 16.7812 12.1406 16.7812Z" fill="white"/>
<path d="M12.1406 13.9688H6.51562C6.12729 13.9688 5.8125 14.2835 5.8125 14.6719C5.8125 15.0602 6.12729 15.375 6.51562 15.375H12.1406C12.529 15.375 12.8438 15.0602 12.8438 14.6719C12.8438 14.2835 12.529 13.9688 12.1406 13.9688Z" fill="white"/>
</svg>
