<svg width="24" height="24" viewBox="0 0 24 24" fill="none" xmlns="http://www.w3.org/2000/svg">
<path d="M17.5544 3H5.82474C5.36925 3 5 3.33097 5 3.73925V18.7589C5 19.1672 5.36925 19.4982 5.82474 19.4982C6.28023 19.4982 6.64948 19.1672 6.64948 18.7589V4.4785H16.7296V18.0197H15.8788C15.4233 18.0197 15.054 18.3506 15.054 18.7589C15.054 19.1672 15.4233 19.4982 15.8788 19.4982H17.5544C18.0099 19.4982 18.3791 19.1672 18.3791 18.7589V3.73925C18.3791 3.33097 18.0098 3 17.5544 3Z" fill="white"/>
<path d="M14.0152 19.213C14.2466 18.9472 14.2494 18.5741 14.0152 18.305C13.9622 18.2441 14.121 18.391 12.2728 16.7343C11.9507 16.4456 11.4285 16.4456 11.1064 16.7343C10.7844 17.023 10.7844 17.4911 11.1064 17.7798L11.3742 18.0198H8.33829C7.8828 18.0198 7.51355 18.3507 7.51355 18.759C7.51355 19.1673 7.8828 19.4983 8.33829 19.4983H11.3742L11.1064 19.7382C10.5853 20.2054 10.9616 21.0003 11.6896 21.0002C11.9007 21.0002 12.1118 20.928 12.2728 20.7837C14.1359 19.1137 13.9656 19.27 14.0152 19.213Z" fill="white"/>
<path d="M13.3651 7.4824C13.8206 7.4824 14.1899 7.15143 14.1899 6.74315C14.1899 6.33488 13.8206 6.00391 13.3651 6.00391H10.0138C9.55833 6.00391 9.18909 6.33488 9.18909 6.74315C9.18909 7.15143 9.55833 7.4824 10.0138 7.4824H13.3651Z" fill="white"/>
<path d="M14.2032 9.00781H9.17618C8.72069 9.00781 8.35144 9.33878 8.35144 9.74706C8.35144 10.1553 8.72069 10.4863 9.17618 10.4863H14.2032C14.6587 10.4863 15.0279 10.1553 15.0279 9.74706C15.0279 9.33878 14.6586 9.00781 14.2032 9.00781Z" fill="white"/>
</svg>
