<svg width="60" height="60" viewBox="0 0 60 60" fill="none" xmlns="http://www.w3.org/2000/svg">
<path d="M35.9533 28.5473C38.5127 26.6806 40.1795 23.6597 40.1795 20.2564C40.1795 14.601 35.5784 10 29.923 10C24.2677 10 19.6666 14.601 19.6666 20.2564C19.6666 23.6597 21.3333 26.6806 23.8928 28.5473C17.5303 30.982 13 37.1509 13 44.359C13 47.4695 15.5305 50 18.641 50H41.2051C44.3155 50 46.8461 47.4695 46.8461 44.359C46.8461 37.1509 42.3158 30.982 35.9533 28.5473ZM22.7436 20.2564C22.7436 16.2977 25.9643 13.077 29.923 13.077C33.8818 13.077 37.1025 16.2977 37.1025 20.2564C37.1025 24.2152 33.8818 27.4359 29.923 27.4359C25.9643 27.4359 22.7436 24.2152 22.7436 20.2564ZM41.2051 46.923H18.641C17.2272 46.923 16.077 45.7728 16.077 44.3589C16.077 36.7241 22.2882 30.5127 29.9231 30.5127C37.558 30.5127 43.7693 36.724 43.7693 44.3589C43.7692 45.7728 42.619 46.923 41.2051 46.923Z" fill="white"/>
</svg>
