<svg width="162" height="100" viewBox="0 0 162 100" fill="none" xmlns="http://www.w3.org/2000/svg">
<path d="M19.7941 24.6929L74.4622 15.7969V67.5541L22.5204 64.8349L19.7941 24.6929Z" fill="#FA8F4B"/>
<path opacity="0.05" d="M19.7941 24.6929L74.4622 15.7969V67.5541L22.5204 64.8349L19.7941 24.6929Z" fill="black"/>
<path d="M74.4622 15.7969L140.021 20.7028L136.393 65.7436L74.4622 67.5541V15.7969Z" fill="#DF7D3E"/>
<path opacity="0.1" d="M74.4622 15.7969L140.021 20.7028L136.393 65.7436L74.4622 67.5541V15.7969Z" fill="black"/>
<path opacity="0.4" d="M94.6184 0L74.4622 15.7969L140.021 20.7029L150.735 4.53675L94.6184 0Z" fill="#FA8F4B"/>
<path d="M0 7.44043L49.2155 1.44824L74.4622 15.7968L19.7941 24.6928L0 7.44043Z" fill="#FA8F4B"/>
<path d="M86.4465 29.2367V99.9999L60.8377 97.373L49.6982 96.2371L46.3045 95.8821L35.1721 94.739L19.7941 93.1629V24.6929L74.4551 28.4132L86.4465 29.2367Z" fill="#FA8F4B"/>
<path d="M140.021 20.7029V89.7125L119.496 93.6528L109.514 95.5698L86.4465 100V29.2368L140.021 20.7029Z" fill="#DF7D3E"/>
<path opacity="0.05" d="M140.021 20.7029V89.7125L119.496 93.6528L109.514 95.5698L86.4465 100V29.2368L140.021 20.7029Z" fill="#DF7D3E"/>
<path d="M0 39.5882L19.7941 24.6929L86.4466 29.2367L76.6347 45.7649L0 39.5882Z" fill="#FA8F4B"/>
<path opacity="0.1" d="M0 39.5882L19.7941 24.6929L86.4466 29.2367L76.6347 45.7649L0 39.5882Z" fill="white"/>
<path opacity="0.5" d="M140.021 20.7029L86.4465 29.2368L103.884 44.8562L161.271 35.229L140.021 20.7029Z" fill="#FA8F4B"/>
<path opacity="0.1" d="M140.021 20.7029L86.4465 29.2368L103.884 44.8562L161.271 35.229L140.021 20.7029Z" fill="#FA8F4B"/>
<path opacity="0.1" d="M119.496 93.6527L109.514 95.5696V80.8234L118.864 78.4663L119.496 93.6527Z" fill="white"/>
<path opacity="0.1" d="M60.8378 87.6179V97.373L49.6982 96.237V87.6179H60.8378Z" fill="white"/>
<path opacity="0.1" d="M46.3046 90.6924V95.8823L35.1722 94.7392V90.6924H46.3046Z" fill="white"/>
</svg>
